/* XPM */
static char *_8efde3831fd4b10a13e71a7a9860f0cSFT0d2JTLal0aCGc[] = {
/* columns rows colors chars-per-pixel */
"80 80 218 2 ",
"   c #8D9598",
".  c #909599",
"X  c #91969A",
"o  c #92979B",
"O  c #90979D",
"+  c #93989B",
"@  c #91999C",
"#  c #93989C",
"$  c #929A9C",
"%  c #929A9D",
"&  c #939B9D",
"*  c #93989E",
"=  c #939B9E",
"-  c #95989D",
";  c #94999D",
":  c #959A9D",
">  c #94999F",
",  c #959A9E",
"<  c #969B9E",
"1  c #969B9F",
"2  c #949C9E",
"3  c #949C9F",
"4  c #979C9F",
"5  c #939AA0",
"6  c #959AA0",
"7  c #969BA1",
"8  c #959DA0",
"9  c #979CA0",
"0  c #969EA1",
"q  c #989BA2",
"w  c #989DA0",
"e  c #989DA1",
"r  c #989DA3",
"t  c #999EA2",
"y  c #9A9FA2",
"u  c #9A9FA3",
"i  c #9C9FA4",
"p  c #9BA0A3",
"a  c #99A1A4",
"s  c #9BA0A4",
"d  c #9AA2A4",
"f  c #9AA2A5",
"g  c #9BA3A5",
"h  c #9BA0A6",
"j  c #9BA3A6",
"k  c #9CA1A4",
"l  c #9CA1A5",
"z  c #9DA2A5",
"x  c #9DA2A6",
"c  c #9EA3A6",
"v  c #9EA3A7",
"b  c #9CA4A6",
"n  c #9CA4A7",
"m  c #9DA5A7",
"M  c #9FA4A7",
"N  c #9EA3A9",
"B  c #9DA5A8",
"V  c #9FA4A8",
"C  c #9EA6A8",
"Z  c #9EA6A9",
"A  c #9FA7A9",
"S  c #9FA7AA",
"D  c #A0A3A8",
"F  c #A0A5A8",
"G  c #A1A4A9",
"H  c #A0A5A9",
"J  c #A1A6A9",
"K  c #A2A5AA",
"L  c #A1A6AA",
"P  c #A2A7AA",
"I  c #A3A6AB",
"U  c #A2A7AB",
"Y  c #A2A7AD",
"T  c #A4A7AC",
"R  c #A0A9A8",
"E  c #A0A8AA",
"W  c #A0A8AB",
"Q  c #A1A9AB",
"!  c #A3A8AB",
"~  c #A3ACAB",
"^  c #A1A9AC",
"/  c #A3A8AC",
"(  c #A1ABAC",
")  c #A2AAAC",
"_  c #A2AAAD",
"`  c #A3ABAD",
"'  c #A3A8AE",
"]  c #A3ABAE",
"[  c #A4A9AC",
"{  c #A5A8AD",
"}  c #A4A9AD",
"|  c #A5AAAD",
" . c #A5AAAE",
".. c #A6ABAE",
"X. c #A7AAAF",
"o. c #A6ABAF",
"O. c #A3ADAE",
"+. c #A3ADAF",
"@. c #A4ACAE",
"#. c #A4ACAF",
"$. c #A5ADAF",
"%. c #A7ACAF",
"&. c #A7B0AF",
"*. c #A5AAB0",
"=. c #A5ADB0",
"-. c #A7ACB0",
";. c #A4AEB0",
":. c #A5AFB1",
">. c #A6AEB0",
",. c #A6AEB1",
"<. c #A7AFB1",
"1. c #A7ACB2",
"2. c #A7AFB2",
"3. c #A8ABB2",
"4. c #A8ADB0",
"5. c #A8ADB1",
"6. c #A9AEB1",
"7. c #A9ACB3",
"8. c #A8ADB3",
"9. c #A9AEB2",
"0. c #AAAFB2",
"q. c #ABAEB3",
"w. c #AAAFB3",
"e. c #A9AEB4",
"r. c #ABAEB5",
"t. c #ACAFB4",
"y. c #A6B0B2",
"u. c #A7B1B3",
"i. c #A8B0B2",
"p. c #A8B0B3",
"a. c #A9B1B3",
"s. c #ABB0B3",
"d. c #ABB4B3",
"f. c #A9B1B4",
"g. c #ABB0B4",
"h. c #AAB2B4",
"j. c #AAB2B5",
"k. c #ABB3B5",
"l. c #ABB0B6",
"z. c #ABB3B6",
"x. c #ACB1B4",
"c. c #ACB1B5",
"v. c #ADB2B5",
"b. c #ADB2B6",
"n. c #AEB3B6",
"m. c #AEB3B7",
"M. c #ACB4B6",
"N. c #ACB4B7",
"B. c #ADB5B7",
"V. c #AFB4B7",
"C. c #ADB5B8",
"Z. c #AFB4B8",
"A. c #AEB6B8",
"S. c #AEB6B9",
"D. c #AFB7B9",
"F. c #AFB7BA",
"G. c #AFB6BC",
"H. c #AFB9BB",
"J. c #B0B5B8",
"K. c #B1B4B9",
"L. c #B0B5B9",
"P. c #B1B6B9",
"I. c #B1B6BA",
"U. c #B2B7BA",
"Y. c #B2B7BB",
"T. c #B0B9B8",
"R. c #B0B8BA",
"E. c #B0B8BB",
"W. c #B1B9BB",
"Q. c #B3B8BB",
"!. c #B1B9BC",
"~. c #B3B8BC",
"^. c #B2BABC",
"/. c #B2BABD",
"(. c #B3BBBD",
"). c #B3B8BE",
"_. c #B3BBBE",
"`. c #B4B9BC",
"'. c #B5B8BD",
"]. c #B4B9BD",
"[. c #B5BABD",
"{. c #B4B9BF",
"}. c #B6B9BE",
"|. c #B5BABE",
" X c #B6BBBE",
".X c #B7BABF",
"XX c #B6BBBF",
"oX c #B4BDBC",
"OX c #B4BCBE",
"+X c #B4BCBF",
"@X c #B5BDBF",
"#X c #B7BCBF",
"$X c #B6BBC1",
"%X c #B5BDC0",
"&X c #B7BCC0",
"*X c #B6BEC0",
"=X c #B6BEC1",
"-X c #B7BFC1",
";X c #B5BCC2",
":X c #B7BFC2",
">X c #B8BBC0",
",X c #B8BBC2",
"<X c #B8BDC0",
"1X c #B8BDC1",
"2X c #B9BEC1",
"3X c #B9BCC3",
"4X c #B8BDC3",
"5X c #BABDC2",
"6X c #B9BEC2",
"7X c #BABFC2",
"8X c #BABFC3",
"9X c #B9BEC4",
"0X c #B8C0C2",
"qX c #B8C0C3",
"wX c #B9C1C3",
"eX c #B9C1C4",
"rX c #BBC0C4",
"tX c #BCC1C5",
/* pixels */
"l l s l s l l l s s l l l l s s l l l l s l s s i l l s s s V l l l l l l l w N 7 N s l l l V s s l l l l l l l l l l s s l s s l l l l l w l l l s U w l l w o.",
"V XX&XXXXXXXXX&X&X&X&X2XXXXX&X@XXXXX2XXX2X&X2X&XXX2X2X&X&X&X2X&X&XXXXX2X&X2XXXo.7 XX2XXXXXXXXXXX&X&X&X&X&X&X&X$X&X&X&X2X2X2X2X@X&X&XXX&X2X&X2X&X2XXXXXXX@XXXXXn.",
"w 2XQ.n.M.n.$.` ` E o.2.5.n.F.F.I.I.n.I.5.5.o.o.o.2.o.a.k.F.I.F.XXF.F.n.o.5.XXU O &X!.k.k.k.2.$.` ` o.2.k.n.Z.I.I.I.I.n.k.5.o.E o.2.o.k.n.I.I.n.XXI.n.n.$.$.&X5.",
"l wXk.k.F.2.` E ` ` o.5.5.n.F.F.XXI.I.k.n.o.2.o.U o.o.k.k.I.I.!.F.n.F.n.o.U 2X2.5 &XF.k.F.k.E E o.o.o.2.5.n.n.F.XXI.I.n.5.$.o.o.U $.$.n.n.I.I.Q.n.n.M.I.o.o.2X5.",
"l @Xa.M.k.2.a.a.k.2.5.5.5.5.k.k.Z.I.k.n.2.5.o.5.o.5.5.k.2.5.n.F.n.n.n.r.n.2.2X` - XXk.M.k.a.2.a.5.5.2.5.5.k.k.k.F.n.n.k.5.5.5.5.o.5.5.a.5.n.n.n.F.F.n.5.o.5.&Xn.",
"p XX5.k.$.2.a.2.k.2.5.5.5.5.k.a.n.5.n.5.n.2.a.5.k.k.2.a.5.5.5.5.5.n.5.Y 5.5.2XU - XXk.a.` 2.a.a.k.5.5.5.5.k.5.5.k.5.5.a.5.2.2.a.n.n.5.5.5.5.5.2.2.5.5.5.5.n.I.2.",
"l &X5.2.2.k.M.M.M.k.n.n.5.5.2.$.o.2.o.k.a.k.n.I.n.k.2.2.n.5.5.o.` 2.k.5.n.n.2XU - XX5.a.a.M.M.a.F.n.n.n.k.5.o.o.o.o.$.2.a.k.M.F.F.n.5.5.k.2.2.o.5.2.5.$.5.n.2Xn.",
"l XXo.o.$.a.2.F.!.F.I.F.5.2.$.` $.` ` 2.a.k.F.!.F.F.F.k.5.U o.o.o.U 2.5.k.n.2X` q >Xo.o.$.a.k.F.I.I.I.Z.k.2.o.o.$.` ` 2.a.k.F.!.I.n.n.r.k.` o.o.o.o.o.n.n.M.2Xo.",
"l XXo.o.$.k.F.Q.!.XXI.k.5.5.o.` U U o.k.F.F.I.XX@XQ.n.5.5.o.o.U o.` 5.5.n.n.2Xo.- XX` o.5.n.I.!.!.!.Q.k.5.5.2.U V E ` a.a.F.F.!.&X!.M.2.$.` V V o.o.5.k.k.Q.@X5.",
"l XXo.o.$.k.M.F.!.XXI.n.k.5.o.Y U U o.5.k.n.n.I.XXI.M.5.5.o.o.` ` o.5.n.n.I.2X` - &Xo.o.5.5.I.I.!.Q.F.M.k.5.o.U E E $.a.k.F.F.I.!.Q.F.k.2.$.` ` o.o.2.k.k.F.@X5.",
"l XXo.2.2.k.M.F.I.I.F.n.5.5.o.U U o.o.5.k.n.F.Z.F.n.n.5.$.o.o.o.o.o.5.n.k.F.XXU - &Xo.o.2.k.F.F.F.F.n.k.k.5.o.` E E 2.2.k.k.k.F.F.M.k.a.2.` ` ` ` ` 2.a.k.M.2Xa.",
"l XXo.5.2.k.k.M.n.n.n.n.5.5.5.o.Y o.o.*.5.n.n.n.n.n.n.a.5.5.5.5.5.5.5.5.5.k.XXU - &X$.2.2.k.M.M.k.M.k.a.5.k.5.o.` ` 2.2.k.k.k.k.F.k.k.a.2.$.$.2.2.2.a.2.a.a.XX$.",
"l &X5.5.$.2.2.2.n.a.n.n.a.a.n.5.k.5.5.5.5.5.5.k.n.k.5.a.a.5.5.5.k.a.k.2.k.a.&XS = &X2.2.2.2.2.2.k.n.n.5.a.k.k.2.a.2.k.5.k.k.k.k.n.5.5.5.5.5.5.k.2.u.a.2.k.5.2X5.",
"l 2Xk.n.2.2.$.$.5.5.5.5.5.5.n.n.F.n.k.n.n.5.5.5.5.5.5.5.a.5.5.5.k.k.k.2.k.2.&XE - &Xk.k.a.a.$.$.5.5.5.5.a.a.k.M.k.k.n.5.5.5.2.2.5.5.5.r.n.k.5.5.a.a.a.$.2.2.2Xn.",
"s 2Xn.I.k.a.2.$.E o.o.o.5.5.n.I.F.n.n.n.5.5.o.U 5.o.5.n.M.n.M.I.F.F.k.2.2.o.&X` - 2XF.F.k.k.o.$.o.o.o.5.2.a.M.Q.F.F.F.n.5.5.` V 5.2.5.n.I.F.n.n.I.I.k.$.2.` !.2.",
"w 2XF.I.k.2.` E U E o.o.5.n.I.XX!.XX!.F.n.5.o.l U U o.5.n.n.I.Q.!.!.k.2.` ` &X` - 2XI.F.k.5.U U V ` o.o.2.k.Q.!.!.!.I.I.5.5.U V U U o.k.F.F.I.XXI.I.n.` 2.` &Xk.",
"V XX!.I.I.5.` E s V ` $.o.k.I.XX@XI.n.n.k.o.E E V ` 5.2.I.I.I.~.Q.F.I.5.o.o.2X` w XXI.I.F.5.` E m V E 2.5.F.I.XX!.F.F.M.a.` E ` V V $.2.F.M.F.!.XXI.F.5.o.2.2Xn.",
"l XX!.I.F.5.2.E E ` ` 2.5.n.I.I.I.I.F.I.n.2.E U V o.o.2.n.n.I.I.M.k.n.5.2.2.&XU - XXI.I.F.k.$.V ` E $.2.5.n.I.I.F.F.F.F.k.2.U U V ` $.2.M.M.F.Q.n.n.n.5.2.2.XX5.",
"s &XI.F.n.k.2.` ` ` ` 2.5.n.I.M.I.M.n.n.k.*.o.o.` 5.5.5.n.F.F.I.M.a.5.5.5.*.2X` = &XI.F.n.n.2.E $.` 2.$.5.5.I.I.I.F.n.n.k.2.o.o.` 2.2.a.k.F.F.F.M.a.5.5.2.5.XX5.",
"l 2XF.n.n.5.a.2.` $.2.2.2.5.n.n.M.n.n.n.5.5.5.5.o.5.2.5.5.r.5.n.F.a.5.5.5.5.2Xo.- 2Xn.n.5.k.a.$.2.o.2.2.2.5.n.n.I.n.n.k.5.5.5.5.` 2.2.2.2.k.k.k.M.a.5.5.5.5.XXn.",
"l 2X5.n.n.5.k.k.k.a.k.k.2.2.a.a.a.5.5.n.n.k.5.5.k.k.5.n.5.k.k.n.a.2.k.5.n.5.XXE - 2X5.n.5.k.k.a.k.a.a.k.2.a.k.k.k.5.5.r.k.5.5.k.k.k.a.M.a.k.k.M.5.5.k.k.n.5.XX5.",
"l 2Xo.5.5.5.k.F.M.k.k.k.a.a.a.$.$.o.2.5.k.n.n.I.n.5.5.5.2.2.2.2.$.2.5.5.n.a.2Xo.- &Xo.k.5.k.k.M.M.M.k.M.2.a.2.2.2.2.2.5.5.n.n.F.M.a.a.k.2.$.$.2.o.5.5.5.n.n.XXa.",
"l 2X` o.5.5.M.F.F.M.M.k.a.2.$.E o.o.o.o.5.n.I.XXI.n.n.n.5.o.o.` ` 2.5.5.n.n.2Xo.- &X` 5.5.k.k.F.F.M.F.F.a.2.$.` ` ` ` $.2.k.F.!.!.M.M.k.2.` $.` o.2.5.5.n.n.2Xn.",
"s 2XU ` o.k.M.F.Q.!.!.Q.a.` E m m U o.5.5.n.I.I.XXZ.Z.r.2.U U l V ` 5.5.I.I.2XU - 2XU o.o.5.M.F.!.Q.!.F.k.` ` V V V ` 2.k.M.F.F.!.F.F.a.2.E ` s V o.5.5.I.I.@X5.",
"m !.` E 2.2.F.Q.2XQ.M.Q.k.a.o.o.m V E 2.a.F.F.Q.Q.F.M.k.$.E V V V $.$.a.n.F.XXU 8 @X` E $.2.F.F.&XXXI.I.5.5.o.o.m V V a.a.F.F.!.Q.F.M.a.$.E V V ` ` 2.5.F.F.>X5.",
"m @X` $.2.a.M.F.M.I.F.M.2.2.$.o.E ` ` a.a.M.M.M.Q.F.M.k.2.$.` ` E $.$.a.n.n.XXU = !.` ` 2.a.F.F.I.I.F.F.5.5.o.o.E ` ` a.a.M.M.F.Q.F.M.n.5.$.` ` ` ` 5.a.n.n.XXk.",
"s @X$.2.$.a.k.M.M.n.k.k.a.$.$.o.` $.$.a.a.k.a.k.F.k.k.a.2.$.2.$.$.2.2.k.k.n.XXU = @X2.$.2.a.k.k.n.n.n.n.5.2.2.o.$.$.2.2.a.a.k.k.M.M.k.5.5.2.2.$.` 2.k.k.k.k.XX5.",
"s @X2.2.2.a.k.k.n.5.a.a.k.2.5.5.2.2.2.a.a.a.a.a.k.a.a.2.2.2.2.2.a.a.a.k.k.a.@X` 3 &Xa.$.a.a.k.k.k.5.n.5.r.5.k.5.2.2.a.2.a.a.a.2.a.a.a.5.5.2.2.2.a.a.2.a.k.k.2X5.",
"l XXn.5.n.5.5.5.` 2.n.2.5.5.F.M.a.a.a.a.a.2.2.2.2.2.a.k.a.k.k.k.k.a.k.a.5.2.@Xo.- XXn.5.n.n.k.n.2.o.5.5.k.5.F.F.a.k.a.a.2.a.2.$.2.2.a.n.n.k.k.k.k.k.2.a.a.2.&Xa.",
"l XXI.n.n.k.2.o.` ` 5.2.5.k.F.F.M.M.M.a.a.$.$.` ` ` 2.k.k.k.F.F.M.k.k.2.$.o.2Xo.- &XI.n.n.n.2.o.o.o.5.5.5.n.I.I.M.M.k.k.2.2.` ` E $.2.a.k.k.k.F.M.M.k.a.$.` &Xk.",
"l &XQ.M.n.k.o.` $.` ` 5.5.n.F.F.F.F.F.k.a.` ` V V E $.2.a.M.F.F.F.k.M.5.o.o.2XE - 2X~.I.n.r.` ` ` o.o.5.5.n.I.I.Q.F.F.k.a.` E V V E $.5.n.M.F.F.I.I.n.r.o.U 2X5.",
"l 2XI.I.n.n.o.*.s E o.5.2.I.!.!.Q.F.Q.k.k.` E m V E $.a.k.F.Q.F.!.I.I.5.o.o.@XU - $X~.I.n.n.o.o.N U ` 5.5.I.!.XXQ.F.Q.a.k.E E V V E ` 5.n.F.Q.Q.XXI.n.k.o.o.2X5.",
"l XX!.F.I.2.2.V U ` o.o.5.n.I.I.I.I.I.k.2.o.o.U U o.o.5.5.I.!.!.I.I.n.o.5.U &XU - &XF.M.Q.a.2.V V ` ` 2.a.k.I.!.!.I.F.k.2.$.E E V ` $.a.a.Q.Q.!.!.F.k.o.2.` XX5.",
"s XXXXI.Z.k.2.$.o.o.5.5.5.n.n.n.I.I.F.k.2.5.o.U o.5.5.5.5.M.F.F.I.F.n.5.a.o.2XU X XX!.F.F.a.2.5.` 2.2.2.k.k.n.n.!.I.M.k.2.2.E E ` 2.2.k.2.M.F.F.M.k.k.5.5.o.2X5.",
"V !.n.5.5.r.5.5.2.5.5.5.5.k.n.n.I.n.n.k.a.5.5.o.2.5.5.k.k.M.M.F.n.k.n.5.n.5.2X` w XXa.2.a.k.o.5.2.2.2.2.k.k.k.k.Z.n.k.k.2.a.` ` o.5.5.n.k.n.F.I.M.k.M.a.a.5.2X5.",
"s &Xk.5.5.5.k.F.5.5.5.5.5.5.5.5.5.$.%.a.a.a.n.5.a.a.a.a.a.a.2.a.k.2.a.2.a.2.&XV - &X2.2.a.k.5.n.2.k.a.2.a.a.5.5.5.5.2.k.a.M.k.n.5.n.n.k.5.5.5.5.2.2.a.2.2.a.wX2.",
"m &X` o.5.2.n.n.I.I.n.n.k.5.5.5.5.5.5.a.5.5.n.n.I.M.k.a.2.$.E E 2.2.a.2.a.M.eX` - 2X$.` ` 2.n.n.F.I.Z.n.r.5.2.2.5.5.a.k.2.k.5.n.n.n.n.5.5.2.o.o.5.5.5.5.a.k.&X2.",
"s @Xo.o.5.*.F.n.I.F.n.n.5.5.5.5.U U o.2.a.n.I.Q.I.n.n.2.a.2.$.` o.o.5.5.n.n.XXU - XX2.$.$.a.n.n.F.I.Z.n.5.5.2.2.U U ` 2.2.n.n.I.!.I.n.5.5.o.o.U E E o.5.n.n.XX5.",
"s &X2X2X2X!.&XwX&X2X2X&XXX&X&XXX2XXX&X&X@XXX&X2X2X2X2XXX2X&XwX&X2X2X&XXX2XXX2X2.8 XX&X&X@X&XXX2X&X2X2X$X&X&X@X&X2X2X&X&XXX2X&X2XXXXX&XXX2X2XtXtX2X2X&X&X2XXXXXn.",
"l o.` l o.2.` E U ` o.` ` o.o.` o.` ` ` ` ` o.o.o.o.o.U ` U o.` ` Y U U o.U *.s 8 U ` V E 2.U o.U o.` T o.o.` ` o.E E ` U o.o.o.o.o.o.U o.U o.o.U U D U o.o.o.U ",
"- - 8 - = X 7 7 = = 3 - - = = = - - - - = 3 3 = - - w - - - - - - - - = 8 = 3 =   8 = 3 - = w = - - - - - - - - 7 7 - - - - = = = = 8 - - - - - - - - - = 8 X l ",
"l XX2XXX2X&X2X$X&X@X&X&XXXXX@X!.XXXXXX&X&X&X@X@XXXXX2XXX&XXX2X&X2X&X&X2X&X!.!.2.= !.&X@XXXXX9X$X&X&X&X&X&X&X&X&X$XXX2XXX2XXX&X&X!.!.&XXX2X&X2X2XXXXX&X2X&X2XXXn.",
"l 2XI.5.n.5.$.E E E o.5.5.n.F.F.!.I.I.n.k.2.$.` o.2.5.k.n.I.I.F.!.M.M.k.o.o.XXY = &X!.a.n.5.o.o.` o.o.2.5.n.I.I.!.!.F.I.5.5.o.2.$.$.$.k.n.I.I.I.XXI.k.5.U o.&X5.",
"l &XM.k.Q.a.2.` ` ` o.2.5.n.I.F.XXI.F.n.2.$.` ` ` o.o.k.k.I.I.I.F.k.F.k.5.o.2Xo.= @XM.k.I.n.o.o.o.o.o.2.5.n.F.I.XXI.I.5.5.E o.o.E ` o.a.k.I.I.I.n.n.F.I.5.o.2Xk.",
"l &Xk.M.k.` 2.2.k.5.5.5.5.5.n.k.F.n.k.5.2.$.2.2.o.5.5.n.5.k.n.I.H.F.k.$.5.2.&XU 3 @Xn.n.k.2.$.$.5.5.5.5.5.n.n.n.F.I.k.n.o.5.o.5.~ a.5.n.5.k.n.I.F.n.n.5.5.2.XX5.",
"l XX5.2.$.2.M.k.a.2.5.5.5.5.a.2.k.5.5.5.a.2.2.a.n.5.5.5.5.5.5.5.2.a.k.a.n.k.!.V - XX5.5.$.2.M.M.5.5.5.5.5.5.5.5.n.5.n.5.n.$.a.2.k.a.5.5.5.k.5.5.5.5.n.o.5.n.XX2.",
"l XX5.2.a.k.k.&.F.M.n.n.k.5.2.$.o.o.o.5.a.a.M.F.F.k.2.2.k.2.2.` $.$.2.2.5.n.@X5.- &X5.k.2.k.k.a.F.F.n.n.k.5.2.o.o.o.o.a.2.k.k.F.F.k.5.2.5.5.5.o.o.2.5.5.5.n.2Xk.",
"l XX2.o.2.2.a.Q.Q.F.F.F.k.2.` ` o.o.o.5.a.k.F.!.F.F.F.k.a.` ` ` $.E 2.k.a.I.@XU - &Xo.o.2.2.k.Q.I.I.I.F.k.5.o.o.2.` $.$.a.k.F.!.M.F.I.5.5.` o.o.o.` o.n.n.n.2X5.",
"l XX` o.2.k.Q.Q.!.XXI.n.5.5.*.U U U o.5.k.M.Q.!.2X!.n.5.5.o.` U o.o.5.5.k.F.&X` - XXY o.2.k.F.!.!.XXI.n.k.5.o.` U U o.5.n.n.I.XX@XQ.n.5.5.o.U U o.o.5.$.k.F.&Xk.",
"l &Xo.o.2.a.F.F.!.!.I.n.5.5.o.U U ` o.5.a.k.M.F.XXI.n.n.5.o.o.U ` o.5.n.k.Q.&X` - $Xo.o.2.k.F.F.!.XXI.n.k.5.` E U U o.5.n.n.M.I.XXI.n.a.$.o.o.E o.$.5.a.M.Q.@Xk.",
"l &Xo.2.2.k.F.F.I.I.n.n.k.5.o.` U o.2.5.k.k.M.M.F.n.n.5.5.o.o.o.o.o.2.n.k.F.XXU - &Xo.o.2.k.M.F.I.I.F.n.5.2.$.E U U o.5.a.a.n.M.I.n.n.5.o.o.o.o.o.o.5.n.k.F.!.2.",
"l XXo.5.2.k.M.M.F.n.n.n.n.5.2.2.` o.o.5.5.k.k.d.F.n.k.5.5.2.5.5.2.5.5.k.2.k.!.V - XXo.o.2.k.k.M.F.n.n.n.u.a.2.` o.o.o.5.5.a.n.n.M.n.n.a.5.$.5.5.o.5.5.5.a.k.!.2.",
"l XX5.5.2.2.2.2.k.k.k.k.k.k.a.k.a.2.2.2.5.a.n.n.n.k.5.5.5.5.5.5.2.2.k.2.k.5.2Xo.- XX5.2.2.a.2.2.n.k.n.n.5.k.k.a.5.5.5.5.5.n.n.n.n.r.5.k.k.5.5.5.a.2.k.2.k.5.2X5.",
"l &Xk.n.a.k.$.$.2.2.2.2.a.a.k.M.M.k.k.a.a.a.5.5.5.5.5.k.n.5.5.5.k.k.k.2.k.2.2X` - &Xn.k.k.k.2.2.5.5.5.2.2.a.k.k.n.n.a.5.5.5.5.5.r.5.5.r.n.k.5.5.k.k.M.2.k.o.2X5.",
"s &Xn.I.k.k.$.$.` ` $.2.2.k.n.F.M.k.a.a.5.5.o.U 2.o.5.n.I.F.n.F.F.F.k.2.2.` &XU - @XI.M.M.M.$.2.` o.o.2.2.k.M.Q.I.M.n.n.5.5.o.U 5.2.5.n.I.F.F.I.F.M.k.2.2.` 2X5.",
"s &XI.I.k.a.E E V E ` $.2.k.F.!.!.Q.Q.F.n.5.` V U U o.k.n.n.I.!.!.I.k.2.o.` &Xo.+ @XI.M.k.a.E E U ` ` o.k.k.F.@XXXQ.I.I.n.5.` V U U o.n.F.F.I.I.!.F.k.2.U U $Xr.",
"l $XI.I.I.k.` V m V ` 2.2.n.I.XX@XQ.F.n.5.o.` ` l ` 2.2.F.n.I.!.XXn.F.2.2.` 2XY 8 XX~.I.I.5.$.m s U U $.o.n.I.XX@XQ.F.k.a.2.` E V U 2.$.F.F.I.XX!.F.I.k.o.o.&Xk.",
"l &XI.I.I.r.` E ` S ` 2.5.n.I.I.F.F.I.I.n.o.` U U o.5.5.n.n.I.I.n.n.F.a.2.` $XU - &XI.!.n.k.` V ` ` o.$.k.n.I.I.Q.M.F.F.k.2.` V U ` 2.2.k.F.Z.~.F.k.n.k.o.2.@X2.",
"l $XF.F.n.k.2.` $.E $.$.k.n.I.I.F.F.F.n.k.o.` ` ` 2.5.5.k.n.n.I.n.k.k.2.2.2.&X` - &XF.I.n.n.$.E $.` $.o.k.n.I.F.Q.M.M.M.u.+.` $.o.2.2.k.k.F.n.!.F.k.5.5.o.5.&X2.",
"l 2Xn.n.k.5.2.2.$.+.2.2.2.5.M.I.F.M.k.k.a.2.2.2.o.5.5.r.5.n.k.F.F.n.2.2.2.k.2X` - &XF.n.n.5.a.$.$.$.2.$.5.5.n.n.I.n.n.n.5.2.5.k.o.2.2.5.2.k.5.n.F.k.5.5.5.5.&Xa.",
"l 2X5.n.5.k.k.k.a.k.k.k.2.a.a.a.k.2.2.k.k.k.k.k.5.5.5.n.5.5.5.n.5.5.a.k.k.k.&XU - 2Xk.k.n.5.k.a.k.k.a.a.5.k.5.k.n.5.5.n.k.k.k.n.a.k.5.n.5.r.k.k.5.5.k.k.k.k.XX5.",
"l 2Xo.5.5.k.M.F.M.M.k.k.2.k.2.$.2.$.$.2.k.k.n.F.n.n.k.n.5.2.2.5.o.5.k.a.k.k.2Xo.- 2Xo.k.2.n.k.M.F.M.a.k.a.n.5.2.2.$.$.2.u.k.n.F.k.k.5.n.5.o.2.2.o.5.a.a.k.k.&X5.",
"l 2X` 5.o.k.F.F.F.M.M.M.k.a.$.E o.` ` +.u.k.F.!.!.n.n.n.5.o.o.U ` o.a.2.n.k.2Xo.- 2XU 5.o.n.k.F.F.F.M.k.k.a.o.U ` E ` o.2.k.F.I.!.F.n.n.5.o.2.` o.2.2.2.k.M.2Xn.",
"l &XU o.o.5.M.F.Q.Q.!.F.k.` ` V V V ` 2.u.k.F.I.XXF.I.n.5.U U l U ` 2.2.!.k.&XV - &XU o.2.5.M.F.Q.Q.!.F.k.` ` V m V o.2.2.n.F.G.!.F.n.k.2.V E s U o.2.k.F.F.&X5.",
"l XX` ` +.2.I.I.XXXXI.I.2.2.` ` m V E 2.a.F.F.Q.!.Q.F.k.2.` E V ` ` 2.2.n.I.XXT 8 @XU E $.a.F.F.&X!.F.Q.a.2.` ` s E E a.2.F.F.!.Q.Q.F.k.2.` E E ` $.2.2.n.I.&X5.",
"U XX` ` 2.a.F.F.I.I.F.n.a.2.$.` E ` ` 2.a.M.M.F.Q.F.F.k.2.2.` ` E $.2.2.k.n.XXo.- @X` ` 2.a.F.I.F.F.F.k.2.2.2.` V ` ` a.a.M.M.F.F.F.F.n.5.2.` ` ` $.a.2.n.n.&X5.",
"l XX$.$.2.2.n.n.n.n.n.n.a.2.2.$.$.$.$.2.2.k.k.k.M.M.k.k.2.2.2.` $.$.k.k.k.k.XXo.- &X2.2.2.5.k.n.M.k.k.k.u.+.2.` $.$.2.2.k.a.k.k.F.k.k.5.5.2.2.$.$.2.a.a.n.n.&X5.",
"s XX5.2.2.5.k.n.5.5.n.5.k.2.k.a.2.a.a.a.2.a.a.a.k.k.a.a.u.2.2.2.k.a.a.k.k.k.XX` - 2Xa.2.2.a.k.n.k.2.k.k.k.+.2.u.2.2.a.2.a.a.a.2.k.k.a.5.5.2.2.2.a.a.a.k.n.5.@Xk.",
"l XXn.a.n.n.5.5.$.` 2.2.k.5.F.F.k.k.k.a.a.2.2.$.2.2.a.k.k.k.k.k.M.a.a.k.k.2.&Xo.- &Xa.a.a.k.5.k.o.2.k.2.5.r.I.n.k.k.a.a.2.2.2.$.2.2.u.k.k.k.k.k.n.a.5.a.a.2.&Xk.",
"l XXI.n.n.n.o.o.` ` 2.2.5.k.F.I.M.M.M.a.a.$.$.` ` ` 2.a.k.M.F.F.n.k.k.k.2.` 2Xo.- &XM.M.M.n.o.o.o.o.5.2.5.r.I.Z.M.M.k.k.2.2.` ` ` ` 2.5.n.k.F.F.F.n.5.5.2.` &Xk.",
"s &XQ.I.n.5.o.o.` ` ` 2.5.n.I.I.I.I.I.n.a.o.o.U V ` $.2.k.M.F.Q.I.M.n.k.` ` &X` - 2XI.F.M.n.` ` o.Y o.5.5.n.n.I.F.F.F.k.a.` ` V V E $.5.n.M.F.Q.I.F.n.a.$.E &Xa.",
"l &XI.I.M.n.o.o.V V U 2.5.I.I.XXQ.I.I.n.a.o.E m V ` 2.k.k.F.F.!.XXI.n.k.` o.&XV - 2XI.I.n.n.o.2.l U ` 2.5.I.XX!.Q.F.Q.k.k.` ` V V ` 2.r.n.F.F.Q.!.I.F.n.` E &X2.",
"l XXXXI.F.5.2.V V ` o.2.2.M.Q.Q.XXI.F.k.2.$.E V V ` 2.2.k.F.!.F.Q.F.k.2.2.` XXT - &XQ.I.F.5.5.V m ` o.$.2.k.Q.!.F.F.F.k.2.$.` E U ` o.5.n.I.XX!.Q.F.a.` 2.o.XX5.",
"l XXI.n.F.n.a.` ` o.2.2.2.k.M.M.!.I.F.k.2.2.` E ` 2.u.u.k.F.F.F.I.M.k.2.a.o.2XU = @XI.n.F.n.5.` E ` $.$.2.k.k.M.!.F.F.k.2.$.` V o.5.5.5.r.n.F.n.M.M.k.2.a.o.&X5.",
"l XXn.k.n.n.2.2.2.5.5.5.k.n.n.n.F.n.M.k.2.2.$.$.` 2.a.u.k.k.k.M.k.a.a.2.a.2.2XU 8 &Xn.5.5.n.5.5.5.5.5.5.k.n.n.n.M.k.k.k.5.2.2.` o.2.5.5.k.n.I.I.a.a.k.2.a.5.2X5.",
"l 2X5.2.5.k.k.F.5.k.k.5.5.5.5.5.5.2.a.a.2.a.k.k.k.k.k.k.k.k.a.k.n.a.a.a.2.a.2XU - XX5.a.n.a.5.F.5.5.5.5.5.5.5.5.a.2.2.a.a.a.a.2.n.n.n.k.5.5.5.5.n.a.k.a.2.2.2X5.",
"w 2X5.5.5.5.M.k.I.I.I.n.k.5.5.5.o.o.2.a.a.M.n.F.I.n.n.k.5.o.` U o.o.2.2.2.k.2XE - 2Xo.5.$.$.k.I.I.I.I.n.k.5.5.5.o.o.5.5.5.n.M.M.n.n.k.5.2.o.o.` o.o.2.2.a.k.2X5.",
"l 2Xo.o.o.o.F.F.F.F.n.n.5.5.$.$.o.E $.2.2.k.n.n.I.n.k.k.5.5.o.o.o.2.5.k.k.n.XXU = &X5.o.o.5.n.M.F.F.n.n.5.2.o.2.U U o.5.5.a.n.M.!.I.n.r.5.2.o.` o.2.5.2.k.M.!.5.",
"l XXXX2XtX2X&X@X2X2X2X2X2X&X@X@X@XXX&X&X@X2X2X2X2X2X&X&X2X2X2X2X>X2XXXXXXXXX&X5.w XXXXXX2XeX&X&X2X&X&X2X2XXXXX&X&X&X2X2X&X2X2X2X&XXXXXXX&X2X2X2X2X2XXX!.&X!.@XM.",
"o.n.n.5.n.5.2.k.5.5.5.k.n.n.a.5.n.5.k.a.5.r.5.t.k.n.k.5.5.k.n.r.5.r.3.5.k.5.n.` l k.n.5.k.k.2.F.5.5.5.n.n.n.k.k.k.5.k.k.5.k.n.k.n.n.k.r.k.5.k.n.r.k.5.2.k.k.k.a."
};
