/* XPM */
static char *cf1c878979f14addb794ed87cf6852b6JHDt7Bp4zVdC5kPP[] = {
/* columns rows colors chars-per-pixel */
"80 80 212 2 ",
"   c None",
".  c #010101",
"X  c #0A0101",
"o  c #030804",
"O  c #040209",
"+  c #0A070A",
"@  c #0B0B0B",
"#  c #0A0A07",
"$  c #140200",
"%  c #160B05",
"&  c #0B120B",
"*  c #14130D",
"=  c #1C160C",
"-  c #1B1500",
";  c #0E0E11",
":  c #100D12",
">  c #0E1112",
",  c #151514",
"<  c #1A1A1A",
"1  c #181717",
"2  c #240E00",
"3  c #290B00",
"4  c #2D1A00",
"5  c #2E1609",
"6  c #281404",
"7  c #341500",
"8  c #391600",
"9  c #331A01",
"0  c #31160A",
"q  c #391800",
"w  c #3A1F10",
"e  c #251F12",
"r  c #342205",
"t  c #3A2404",
"y  c #38250A",
"u  c #222222",
"i  c #2B2C2B",
"p  c #272A28",
"a  c #312E2E",
"s  c #30302E",
"d  c #313026",
"f  c #322F31",
"g  c #2D3334",
"h  c #343434",
"j  c #3B3B3B",
"k  c #401200",
"l  c #452B08",
"z  c #512A01",
"x  c #4D2E17",
"c  c #523B1C",
"v  c #412F22",
"b  c #423526",
"n  c #453628",
"m  c #433D3D",
"M  c #3E433D",
"N  c #6C4612",
"B  c #764E14",
"V  c #42433E",
"C  c #49473B",
"Z  c #504B3E",
"A  c #5B4E37",
"S  c #564F2F",
"D  c #784D26",
"F  c #7C6139",
"G  c #3F3E41",
"H  c #453C47",
"J  c #3E4244",
"K  c #424242",
"L  c #494245",
"P  c #4B4B4B",
"I  c #454449",
"U  c #57554D",
"Y  c #504F54",
"T  c #4F5054",
"R  c #555555",
"E  c #545B56",
"W  c #595955",
"Q  c #5A575C",
"!  c #555A5A",
"~  c #5A5A5A",
"^  c #585657",
"/  c #525047",
"(  c #6B5C4A",
")  c #6A5E51",
"_  c #6C6454",
"`  c #63635E",
"'  c #6B645C",
"]  c #66685D",
"[  c #736B5C",
"{  c #7A6F5B",
"}  c #7B715B",
"|  c #777159",
" . c #4D5E60",
".. c #5C5B61",
"X. c #575760",
"o. c #615761",
"O. c #5F6062",
"+. c #656565",
"@. c #696463",
"#. c #646863",
"$. c #656569",
"%. c #69656A",
"&. c #64696A",
"*. c #68686A",
"=. c #6E6864",
"-. c #796D64",
";. c #766D64",
":. c #747163",
">. c #787268",
",. c #7B7B7B",
"<. c #676570",
"1. c #845412",
"2. c #8B5C0C",
"3. c #8C611F",
"4. c #976417",
"5. c #BE7607",
"6. c #BA7B16",
"7. c #8A642C",
"8. c #8F6524",
"9. c #946528",
"0. c #8A6234",
"q. c #9A702B",
"w. c #B87F2B",
"e. c #AB7837",
"r. c #A97334",
"t. c #C67801",
"y. c #C27710",
"u. c #82765A",
"i. c #8D7959",
"p. c #A97D42",
"a. c #827561",
"s. c #897A64",
"d. c #B6812C",
"f. c #AF803D",
"g. c #FEA61B",
"h. c #FEAA1D",
"j. c #F9AD1B",
"k. c #CD9638",
"l. c #DA9E3D",
"z. c #D79C3A",
"x. c #D8A03C",
"c. c #FEA624",
"v. c #FEA924",
"b. c #FFA72B",
"n. c #F4AB2E",
"m. c #FCAA2A",
"M. c #F6A629",
"N. c #ECAB3C",
"B. c #ECA839",
"V. c #F3A633",
"C. c #F3AB33",
"Z. c #F9AB32",
"A. c #F3A63C",
"S. c #F3AA3B",
"D. c #FBA731",
"F. c #F6B13C",
"G. c #9F8057",
"H. c #A2885D",
"J. c #9C8A67",
"K. c #9B8E74",
"L. c #958978",
"P. c #9C927E",
"I. c #A6977E",
"U. c #B09D7E",
"Y. c #A3926F",
"T. c #CA9948",
"R. c #DA9D41",
"E. c #D79F44",
"W. c #CD9851",
"Q. c #DDA54D",
"!. c #E6A844",
"~. c #F4AA41",
"^. c #E9A552",
"/. c #FECF7A",
"(. c #FCD17D",
"). c #838383",
"_. c gray54",
"`. c #A59C84",
"'. c #B29F87",
"]. c #B2A385",
"[. c #B2A288",
"{. c #B7A984",
"}. c #AFA587",
"|. c #CFB996",
" X c #F9CD85",
".X c #FAD085",
"XX c #F7D394",
"oX c #D6CBB3",
"OX c #D1C9AD",
"+X c #E2D3AD",
"@X c #E3D2A7",
"#X c #E3D3B0",
"$X c #EBDBB3",
"%X c #EDDBBB",
"&X c #E4D8BB",
"*X c #F1DBB7",
"=X c #FEE6AE",
"-X c #FEE8AF",
";X c #F6E4B2",
":X c #FEE6B5",
">X c #FDE5B4",
",X c #FCE9B4",
"<X c #F4E5BE",
"1X c #FEE5B9",
"2X c #FDE5BA",
"3X c #FCE8BB",
"4X c #E9DAC2",
"5X c #F4E4C2",
"6X c #FBE5C3",
"7X c #FCE9C0",
"8X c #F8E8C6",
"9X c #E9E3C4",
/* pixels */
"                                                                                                                                                                ",
"                                                                                                                                                                ",
"                                                                                                                                                                ",
"                                                                                                                                                                ",
"                                                                                                                                                                ",
"                                                                                                                                                                ",
"                                                                                                                                                                ",
"                                                                                                                                                                ",
"                                                                                                                                                                ",
"                                                                                                                                                                ",
"                                                                                                                                                                ",
"                                                                                                                                                                ",
"                                                                                                                                                                ",
"                                                                      i h h j j j h K ,.).).).).).).*.h i < @                                                   ",
"                                                                      . . . . . . . # +.+.+.+.+.+.+.I . . . .                                                   ",
"                                                                      . . . . . . . + +.+.+.+.+.+.+.I . . . .                                                   ",
"                                                                      . . . . . . . # ] ' ' ' ' ' _ C O . . o                                                   ",
"                                                              # # X + ~ +.` ` +.+.+.:.9X<X5X5X<X5X5X`.. . . . . + @                                             ",
"                                                              # . . . ~ +.#.+.+.$.$.-.5X,X2X,X,X>X3X}.X # . . O . . #                                           ",
"                                                              # . . . ` #.+.+.+.#.+.-.6X>X2X2X>X>X2X[.X . . . . X . ,                                           ",
"                                                              # . . . +.#.+.` :.:.:.s.2X>X2X2X>X>X3X{.= = = = = = = d                                           ",
"                                                              # . . . +.$.+.' &X$X&X$X,X>X>X>X>X>X,X;X#X#X+X+X+X#X&X>.* , ,                                     ",
"                                                              # . . . +.$.@._ 5X>X2X2X>X>X>X>X>X2X,X>X2X2X>X>X>X,X6Xa.X . . @                                   ",
"                                                              # . . . +.$.=._ 5X>X>X2X2X>X>X>X3X2X:X>X>X2X2X>X>X=X7Xu.X . X #                                   ",
"                                                              , + # @ O.%.@.[ 4X%X$X%X%X%X$X%X4X%X%X*X=X2X2X=X>X>X7Xi.= = 6 e                                   ",
"                                                      . . . . ~ $.+.+.#.$.%.' ' ' _ ' ' ' _ ' ' _ ' K.,X>X>X=X>X>X>X3X5X8X5X[ . # .                             ",
"                                                      . . . . ..$.+.+.+.$.$.@.+.$.+.+.+.+.+.$.$.#.+.L.<X>X>X=X>X>X>X=X,X>X3X{ . . .                             ",
"                                                      . . . . ~ $.+.+.+.+.#.+.$.$.+.+.#.&.&.+.+.+.@.L.5X:X3X2X>X>X2X>X>X2X>X| . . .                             ",
"                                                      . . . . ~ +.+.+.~ ~ ~ ~ ....~ ~ +.#.+.=.L.L.L.I.[.].].|.,X>X2X2X2X2X2X| . . .                             ",
"                                                      . . . . ~ +.+.+.I K K K K I H L +.$.$.-.8X3X6X[.X o X n ,X>X2X2X2X2X2X| . . .                             ",
"                                                      . . . . ~ #.+.+.I K K K V V I L +.&.+.} 2X,X2X[.X . . b ,X>X2X>X,X>X>X} . . .                             ",
"                                                      . . . . ~ +.+.+.I K K K K K J I $.+.+.| >X:X>X'.X . . n ,X>X>X>X,X,X3X} . . .                             ",
"                                                      < , < < R ~ ~ ~ K K K K K I K Z J.H.J.Y.>X>X=X[.X . . b ,X:X2X|.I.I.`.Z . . .                             ",
"                                              < . . . j K K K K K j K K K K K K K K A XX/..XXX=X>X>X].. . . b ,X:X6Xs.X X X . . . .                             ",
"                                              < # . . j K I K K K K K K K K K K J J A  X/.(..X,X>X3X[.. . . n :X>X2Xa.. . . . . . .                             ",
"                                              < . . . j K K K K K K K K K K K K L V S .X(. X.X>X2X3X[.X . X v 3X=X>Xu.. . . . . . .                             ",
"                                              < . . . j K K K K K K K K K K K I H I C i.i.i.G.2X>X>X@XK.L.K.U.>X>X2Xu.. . . +                                   ",
"                                              < . . . j K K K K K K K K K K K K M J J K K C S ;X>X>X>X3X7X3X2X,X2X2Xu.. . O                                     ",
"                                              < . . . j K K K K K K K K K K K K M j I K K M Z 2X3X3X-X>X2X>X3X>X:X2Xu.. + . *                                   ",
"                                              < . . . j K K K K K K K I I K I K K K I V V J / 2X2X2X>X>X>X>X2X7X3X6Xa.. . . ,                                   ",
"                                              < . . . j K K K K K K I < , , , P R T Y / P T ( >X2X,X>X2X>X,X+XK.K.P.Z . . . ,                                   ",
"                                              < . . . j K K K K K K K . . . . ~ W ! Q W W Q _ ,X,X>X>X>X,X,XoX' +.+.h . . . 1                                   ",
"                                              < . . . j K K K K K K K . . . . W W E Q Q W ~ _ >X=X>X2X>X=X:XoX%.&.$.g . . . 1                                   ",
"                                              < . . . h K K K K K K K . . . . ^ W E ! Q W ^ _ <X2X2X2X2X>X;XOX@.$.$.h . . . <                                   ",
"                                              < . . . j K K K K K K K . . . . ^ W E ! Q ^ ~ W [ -.;.;.-.-.[ >.*.@.@.h . . . 1                                   ",
"                                              < . . . j K K K K K K K . . . . ^ ~ E ! Q ~ E ^ @.+.] ] +.` ] +.+.@.@.h . . . ,                                   ",
"                                              , . . . j K K K K K K K . . . . ^ Q E ! Q R ~ Q $.%.#.#.$.<.@.@.*.+.+.h . . . *                                   ",
"                                              , # . # j K K K K V V V . . . . R R U R X.Q ! ~ @.+.+.+.$.$.+.+.+.+.+.h . . . @                                   ",
"                                      @ , < , h j j j K K K K K K K V O . . . @ # @ , ! ~ ! X...~ ~ ~ +.+.+.+.+.+.+.h . . . @                                   ",
"                                      . . . . h K K K K K K K K K J J . . . . . . . o W W W ^ ..~ ~ ~ +.+.+.+.+.+.+.h . . . @                                   ",
"                                      . . . . h K K K K K K K K V J J . X . . . O . o W ~ ^ U E ~ ~ ~ +.+.+.+.+.+.+.h . . . #                                   ",
"                                      . # # . h j j j j j j j m m M G % % $ $ $ % $ - ( ) ( (  .~ ~ ~ +.+.+.+.+.+.+.h . . . #                                   ",
"                              i . . . p K j K @ . . . . . . . . . . $ Q.~.S.C.S.S.C.N.S.N.~.W.U ~ ~ ~ +.+.+.+.+.+.+.h . . . #                                   ",
"                              h . . . i K K K , . . . . . . . . . . $ N.v.v.j.v.v.g.m.b.v.v.^.o.~ ~ ~ +.+.+.+.+.+.+.h . . .                                     ",
"                              i . . . h K V K ; . . . . . . . . . . $ B.c.c.v.b.c.g.m.b.v.j.!.E ~ ~ ~ +.+.+.+.+.+.+.h . . .                                     ",
"                              p . . . f K V V > O . X w y y r t r t z !.m.v.v.c.v.v.v.v.v.h.R.I I I P +.+.+.+.+...+.j # # #                                     ",
"                              i . . . f K K V > . . X T.A.V.V.V.V.V.V.v.h.h.v.m.v.v.v.v.v.v.l.. . . < ~ ~ ~ ~ ~ ~ ^ ^                                           ",
"                              i . . . s K J K * . O $ k.h.v.m.m.b.b.b.v.h.h.v.m.v.v.v.v.v.v.R.. . . < ~ ~ ~ ~ ~ ~ ~ ,.                                          ",
"                              i . . . s V J K % X . $ k.h.c.v.v.v.v.m.v.v.v.v.v.v.v.v.v.v.v.z.. . . < ~ ~ ~ ~ ~ ^ ~ _.                                          ",
"                                @ O . u f g f l l l z z.m.c.v.v.h.h.v.v.v.v.v.v.v.v.v.v.v.v.R.. . . < ~ ^ ~ ~ ~ ~ *.                                            ",
"                                      O X . X e.V.m.Z.c.c.c.h.v.b.m.m.v.v.v.v.v.v.v.v.v.v.v.R.. . . < ~ ^ ^ ^                                                   ",
"                                      O X . X w.m.g.v.v.m.v.h.m.v.v.v.v.v.v.v.v.v.v.v.v.v.v.R.. . . < ~ ~ ~ P                                                   ",
"                                      . X . X w.m.c.c.m.n.m.m.D.Z.m.m.m.m.m.m.m.m.m.m.v.v.v.R.. . . < ~ E ~ I                                                   ",
"                        ; : @ ; > &   . . . X d.v.c.v.4.B 1.1.1.1.1.1.1.1.1.1.1.1.1.4.g.g.c.R.. . . @ i i i i                                                   ",
"                      @ . . . . O . O O . . X d.M.v.S.0 . X . . . . . . . . . . . X 2 F.m.b.l.. . . . . . . ,                                                   ",
"                      # . . . . . . X . . . X d.m.c.~.0 . X . . . . . . . . . . . . 2 C.v.v.l.. . . . . . . @                                                   ",
"                      + . . . X X X X . O . X d.v.v.S.0 . X . . . . . . . . . . X X 3 Z.v.c.l.. . . . . . . #                                                   ",
"                      + . . . c 7.8.7.e . . X w.v.c.S.5 . . . . . X X         . . . 2 C.c.c.l.. . . . . . . # # u h                                             ",
"                      + o . X 7.Z.m.S.x X . X d.m.c.A.0 . . . . . O O         o . . 2 C.v.c.l.. . . . . . . . . . . i                                           ",
"                      X X . X 9.m.c.Z.x X . X d.m.v.S.5 . O . . . . .         . . X 2 C.v.c.l.. . . . . . . . . . # ,                                           ",
"                      X X X $ 9.V.Z.N.x X X $ d.v.v.C.5 . . . . . . #         . . . 2 C.m.m.l.. . . . X X X X . # . ,                                           ",
"                @ X X F T.T.T.N k 3 7 r.T.T.T.B.v.c.Z.5 . . . . . . .         . . . 2 n.v.m.l.. . . 9 q.4.q.D . . . ,                                           ",
"                . X X 0.F.c.n.N X . X f.D.v.g.h.m.b.S.5 . . . . . . .         . . . 2 C.c.c.x.. . X l 5.t.5.4.+ . . <                                           ",
"                . o . 7.b.m.V.N X O X e.b.g.v.m.v.v.S.0 . . . . . . .         . . . 2 S.g.c.E.. . o t t.t.t.2.. . . <                                           ",
"                X . X 0.N.C.!.N X . X p.S.V.B.N.C.A.^.5 X . . . . . .         . . . 2 !.V.N.W.X O . t 6.y.6.3.X . . u                                           ",
"                      r 9 9 7 y       4 7 8 8 8 7 q 8 X . o .                 . o . X 9 7 4 4 X . . X 3 3 3 r                                                   ",
"                      . . . X         . . . . . . . X . . . .                 . . . . . . . . . . . . . . . :                                                   ",
"                      O . . .         . . . . . o . . . . . .                 . . . . . X . o . . . . . . . o                                                   ",
"                      . . . .         . . . . . X X X . . . o                 . O . . . X X O . . . . . . . .                                                   ",
"                                                                                                                                                                "
};
