/* XPM */
static char *_a4062535afa4a0582f3cea26a19e92fHd8L74Ll2hqyMcHj[] = {
/* columns rows colors chars-per-pixel */
"80 80 248 2 ",
"   c #000001",
".  c #090003",
"X  c #000902",
"o  c #02010A",
"O  c #08020E",
"+  c #100000",
"@  c #745D04",
"#  c #714A09",
"$  c #7A6706",
"%  c #7C7C04",
"&  c #7F7810",
"*  c #97050B",
"=  c #951217",
"-  c #AC0104",
";  c #AD010B",
":  c #A50706",
">  c #B50105",
",  c #BB0105",
"<  c #B4010A",
"1  c #BB010A",
"2  c #B5090F",
"3  c #AB1302",
"4  c #A80916",
"5  c #BC0212",
"6  c #B70615",
"7  c #A7131D",
"8  c #B31313",
"9  c #B73105",
"0  c #B41725",
"q  c #AD2A2F",
"w  c #97232E",
"e  c #C30105",
"r  c #CB0105",
"t  c #C3010A",
"y  c #CB010B",
"u  c #C50907",
"i  c #D20105",
"p  c #D3010B",
"a  c #DA000C",
"s  c #D90006",
"d  c #C40112",
"f  c #CC0112",
"g  c #C80719",
"h  c #D30112",
"j  c #DA0113",
"k  c #D40119",
"l  c #DA0019",
"z  c #C8141D",
"x  c #E20317",
"c  c #C13807",
"v  c #CD1127",
"b  c #C7262B",
"n  c #CB2835",
"m  c #C6343C",
"M  c #D62B35",
"N  c #876B08",
"B  c #8D7303",
"V  c #837D04",
"C  c #877A07",
"Z  c #9B7A0B",
"A  c #9A7707",
"S  c #987614",
"D  c #867B16",
"F  c #A47B04",
"G  c #A47D0B",
"H  c #A47605",
"J  c #A47B12",
"K  c #B17E15",
"L  c #967A2C",
"P  c #946D1A",
"I  c #DB6517",
"U  c #E46F20",
"Y  c #B13848",
"T  c #CA3745",
"R  c #B54C4D",
"E  c #B77379",
"W  c #B96161",
"Q  c #CB4D52",
"!  c #CC5C63",
"~  c #D2666C",
"^  c #CE7173",
"/  c #E46A76",
"(  c #798307",
")  c #8A8507",
"_  c #968907",
"`  c #9C9406",
"'  c #A4830A",
"]  c #AA840A",
"[  c #A98707",
"{  c #B48C04",
"}  c #B48D0B",
"|  c #B88B0B",
" . c #A69808",
".. c #BC940B",
"X. c #B69509",
"o. c #AC8512",
"O. c #B48B11",
"+. c #B58714",
"@. c #BA9413",
"#. c #A8A50B",
"$. c #B7A609",
"%. c #B4B20E",
"&. c #958630",
"*. c #B1902E",
"=. c #C49B0D",
"-. c #C79909",
";. c #C69913",
":. c #D39E11",
">. c #D7980B",
",. c #EB9915",
"<. c #C9A70A",
"1. c #D2A40C",
"2. c #D6A90C",
"3. c #DDAC0D",
"4. c #DAA709",
"5. c #C9B509",
"6. c #D3BC04",
"7. c #D3BB0C",
"8. c #DBBB0C",
"9. c #D8B40B",
"0. c #CDA114",
"q. c #DCAB11",
"w. c #D4A314",
"e. c #CAB812",
"r. c #D8B714",
"t. c #E3AC0C",
"y. c #E8AB0E",
"u. c #E4B40D",
"i. c #EAB50D",
"p. c #EBBC0E",
"a. c #E4B709",
"s. c #E3AD14",
"d. c #EAAD12",
"f. c #E8A517",
"g. c #E4B212",
"h. c #EBB412",
"j. c #ECBA13",
"k. c #E8B816",
"l. c #F3BC0F",
"z. c #EC8925",
"x. c #F49626",
"c. c #D5B034",
"v. c #E9B827",
"b. c #EEAF24",
"n. c #C59936",
"m. c #B1C416",
"M. c #D1C20C",
"N. c #ECC20C",
"B. c #F5C714",
"V. c #FBD61A",
"C. c #EEC413",
"Z. c #FDE21B",
"A. c #EBC729",
"S. c #FBD825",
"D. c #EDC635",
"F. c #F8D53A",
"G. c #F4CB2F",
"H. c #FCE736",
"J. c #978F51",
"K. c #AB944D",
"L. c #989970",
"P. c #A49A67",
"I. c #AEA675",
"U. c #BAA758",
"Y. c #D7B545",
"T. c #D7B64E",
"R. c #DEC15B",
"E. c #F7D649",
"W. c #EECE52",
"Q. c #FAEB4E",
"!. c #FBE677",
"~. c #F4F169",
"^. c #F6DF6F",
"/. c #DB7B81",
"(. c #E77785",
"). c #8F9893",
"_. c #A4A886",
"`. c #AFB491",
"'. c #9299A5",
"]. c #A9A9A7",
"[. c #B8BCBA",
"{. c #AEB2AF",
"}. c #9DA2A0",
"|. c #D79695",
" X c #C4BD8C",
".X c #ECA49D",
"XX c #EBB8B3",
"oX c #F0A8AA",
"OX c #E29E9E",
"+X c #B9C3AE",
"@X c #D0C899",
"#X c #FAEA99",
"$X c #FEEC8E",
"%X c #DCD6AB",
"&X c #CED6B7",
"*X c #D9DCB9",
"=X c #CCCCA7",
"-X c #E6D9AB",
";X c #E4DCBA",
":X c #D8E2B6",
">X c #F8E9A7",
",X c #FDF5A4",
"<X c #EAE6B7",
"1X c #EDE4AE",
"2X c #F9BDC7",
"3X c #BEC4C4",
"4X c #C5C8C8",
"5X c #D7DBD4",
"6X c #D0D6CC",
"7X c #FAD3CD",
"8X c #F8DBD6",
"9X c #F7CCCD",
"0X c #DAE7DB",
"qX c #E3E5DC",
"wX c #E5EADC",
"eX c #E6E8D9",
"rX c #F9E9DB",
"tX c #EEF3D6",
"yX c #D7DCE2",
"uX c #FEDFE3",
"iX c #DEE8E3",
"pX c #E5E5E4",
"aX c #E4EAE3",
"sX c #EAEBE4",
"dX c #E4E5EB",
"fX c #E4EBEA",
"gX c #EBEDEC",
"hX c #EBE6E3",
"jX c #F6EAE6",
"kX c #ECF2EB",
"lX c #E8F4E8",
"zX c #F3F3E5",
"xX c #F3F3EC",
"cX c #FBF3EB",
"vX c #F5FAED",
"bX c #FCF8EA",
"nX c #E9ECF2",
"mX c #F7EDF3",
"MX c #EEF4F4",
"NX c #ECF8F5",
"BX c #F4F5F3",
"VX c #FCF5F4",
"CX c #F4FBF5",
"ZX c #FBFBF6",
"AX c #F3F3FA",
"SX c #FDF4FB",
"DX c #F6FCFA",
"FX c #FCFDFB",
/* pixels */
"    .     .   D.D.V.V.Z.H.H.Q.. . .     o . X                                                                                                                   ",
".         c.B.B.V.S.H.Q.!.~.Q.Q.H.        X   .                                                                                                                 ",
"    o *.f.a.l.C.B.S.E.$X#X,X,X$XQ.Z.E..   .                                                                                                                     ",
"    *.-.f.s.j.N.C.S.E.!.#X>X,X,X!.H.S.F.    X                                                                                                                   ",
"    O.>.:.4.t.h.l.v.G.E.^.$X#X!.Q.F.V.B.    .                                                                                                                   ",
"  L ] | ;.;.>.f.y.k.k.D.G.F.E.F.F.V.A.C.r.    .                                                                                                                 ",
". Z G K } { -.-.0.1.s.g.k.v.v.k.j.j.j.h.f..   .                                                                                                                 ",
"  L ' H J ] +.} { ;.-.:.1.4.q.s.q.q.4.0.@.o                                                                                                                     ",
"  . ' H Z S A ' ] ] [ } ....=.=.;.-.;...K..                                 .       .                                                                   .       ",
"    U.] A Z S N B B A Z Z Z ' ' ' F J S     o                                             .                                                     o       .       ",
"    o &.[ Z A B N N $ $ $ N N N N N N                           .     . .       .           .                   .                               o   .     o     ",
".     . L ' A Z B N N N $ @ @ @ @ #     . . .                         .           .   .   X . E R Q m n M v v g u u t t , 1 1 1 1 1 1 1 5 5 z z n m T Q Y   .   ",
"              D B B N $ $ $ $ @         o       .               . X . E W ^ W Q ! Q M b z f p y p h y t y t t e t t t , , 1 1 , < < < < < < < < < < < > ; 6 = o ",
"X   .   .   O K.B B N N B ' ;.:.3 t 5 v z b M n n b b b z z g f t f t y y p y y p i p a a p y a y p r r i r e e e t e t , , , 1 > , > > > > > > > - < , * .   X ",
"    .     .     S S G -.4.4.t.s.U , e , e f , e y y r r r r r r r r p y y p p h p p i i p p p p y y y y y y y y t t t t t , , , , , , < 1 1 < > 1 , 4   .     . ",
".         o   . A ] O.=.1.t.h.d.z.1 t e e > r t y y y y y y y y p r r p r i p i p p p p r a a r p i r y r y y y t t t t t t , , , 1 1 1 1 1 > > -             o ",
"                A ' } ..w.g.u.i.f., t e y e t r e e y f t p e e y y r y i p p i i p y < 7 Q (./.Q 7 t s r y p e r y t e e 1 1 e , , 1 1 > , , q .       . .     ",
"                S o.{ ;.w.4.i.i.f.e , e e t t y y y t 1 r r y t r i e r i y d ^ DXFXFXFXZXFXFXZXZXFXFXFXxX7X7 p r t f e r , t 1 t d , > , =   o             .   ",
"                L G { -.1.3.h.k.f.2 , e e t t t e y t r y t r t r y p r ^ FXZXCXFXFXFXFXFXDXZXFXZXFXCXBXCXcXVXAX|.t e f t e e t , 1 , - R .     .             . ",
"                C F O.=.1.3.h.i.d.- e e e t t t e t y r r f e r t y OXBXBXAXFXFXvXZXZXZXFXFXFXFXFXFXFXFXDXlXZXCXxXzXW y t r e , t r <               .           ",
"                &.F o...:.3.g.p.d.9 e t e t t t e e t t u y t y R zXxXBXDXBXBXvXFXFXFXFXFXFXFXFXDXFXVX/.XXDXBXBXNXzXkXzX, i t r , , , r T   .   .     .     .   ",
"                . J O.{ :.2.g.j.h.I e t e e e y y e t , y r t rXxXmXcXcXlXcXBXvXCXCXFXFXFXFXFXZXZXZX.Xp f uXCXcXxXBXxXgXjX4 e 1 t t t 1 , q X .   .     .       ",
"                o A ] ..;.1.h.i.j.x.e t t e e t t r y y e 8 zXgXjXxXxXNX8Xh |.SXZXZXZXZXZXFXFXFXZXoXp k l d VXNXxXkXcXlXfXsX4 y e e , , t 1 z R     .           ",
"                  G ] { -.1.s.j.j.,., , t e e t e t e r * rXfXgXlXzXNXxXg p a 5 BXZXFXFXFXFXDXFX9Xh j h h a y VXBXBXlXsXlXaXeX> 1 e y 1 , , t , T         .   . ",
"                  S ] | ..1.a.h.i.d., , t t e e e t e 6 sXsXwXgXlXzXBX9Xy k a l h ~ VXFXZXSXZXmXy j h a k h a 2 BXcXlXgXkXsXaXoXt r , e e t > e , d q   .     O ",
"                  S G | X.0.s.k.i.d.> , t t e e , y t rXhXwXpXsXlXsXBX1 p f h h p j y xXFXFXuXh h y h h h h h h 0 lXxXlXgXaXeXpX4 e t , t t , e 1 1 < b         ",
"                  . F } @.-.3.u.i.d.3 , t t t e y , R 0X0XwXfXsXkXBXOXy p h p j h j f x 0 mXk y j k j k p k h j y T xXlXwXsXhXfX^ t t e t , , , , 1 , , v   X . ",
"                    H [ @.0.4.g.i.h.c , , e t e , e rXhXqXsXaXsXsXxX1 t k h p p p p j l h p f k k j 0 7Xr p l p f j ^ lXlXeXaXpX8Xe t t e e e , e 5 , , > 1 6   ",
"                    F o...=.w.g.j.h.I , , e t t u 1 0XqXsXaXeXjXkX^ f y k y j 0 f h p f x j k k h 5 CXVXn j f a h k p 2XlXjXaXaXsX, t t e e e u t , t < 1 , < 8 ",
"                .   H ] } =.4.3.j.h.z., , , 1 e e = 0XqXqX0XwXhXlX1 h p y f p 2XVXQ f p h p p l k cXFXvXVXf p h p p h r 8XaXhXqXqXe u y t e t , t 5 > , , , = . ",
"                    S ' ..=.1.3.i.h.f., , , 1 e t R qX0XqXaXwXaXQ f y y p h a SXAXZXmXd y j k a jXFXSXFXCXXXk h h p y f e jXlXqXhXe , y e e t e e , e t *       ",
"                    S G | ..w.3.u.u.f., , , 1 , 1 = 0XeXeXpXwXhXe f y y f p z CXSXCXZXFX(.p h rXFXDXFXFXCXVX7 j f k p y j t jXqX8Xe , y e e , e , t < w         ",
"                . . D J +.X.:.t.u.h.d.* , 1 , t t ; eXpXeXsXpX0 f r f f p j |.vXDXCXFXVXFXVX[.FXFXDXFXFXFXCXbXg y j h f f e 9XeX^ f e t , d e r , 7 .     .     ",
"                    . F } X.0.w.u.i.d.3 , 1 , , , , 8X0XiXeX8Xe , f k y y y AXBXDXCXBXFXFXZXVXFXFXFXZXZXFXDXZXrXk f y y 2 jX0XpX> t e e e , h >           .     ",
"                    o A o.} ;.q.u.i.g.c > 1 1 1 , , ! wXeX8X; r d e t p f 5 BXcXZXVXFXCXFXFXFXFXFXFXFXFXFXFXVXBXQ l k 7 jXaXsXrXe e t f r d 4   o             . ",
"                      Z o.{ =.1.t.i.h.I < , 1 1 d , > 8X0XE y , r f t h y |.AXxXBXVXZXFXFXDXDXFXDXFXFXFXSXSXFXBXBX1 |.NXjXjXgX2 r t p , , =       .             ",
"                      J [ { =.2.t.i.h.z.1 > 1 1 < , , 8 0XeXrX5 y t p u t NXSXCXBXZXZXFXZXFXFXFXFXFXZXFXZXFXCXNXBXxXBXsXaXgXQ p y r t f       o     . .         ",
"                .     S ' O.;.:.t.u.h.,.1 > , 1 , , , e ! wXiXwXcX7 d e 6 BXxXBXBXZXFXVXFXFXZXFXFXFXFXFXCXZXVXVXxXkXNXgXzXXXt r t t e y i q       .           . ",
"                      &.G { =.0.t.g.i.y.< < , > , t e , , ^ 0XqXaXsXjX~ .XxXxXCXBXCXFXFXFXDXFXFXZXFXCXCXFXZXCXBXxXxXlXkXXXy y r y y f r y t M   X               ",
"                      S F } ..0.4.3.i.t.< < > > 1 > < 1 , , m eXsXsXlXnXlXAXxXAXBXFXCXDXVXFXFXFXFXZXFXFXCXFXDXBXDXxXzX/ r r h e e y t y e e t z Y .     .     . ",
"                      &.G { ..<.q.r.h.i.* > > < < 1 , , , , 1 1 jXsXlXzXsXxXNXBXCXZXFXZXDXFXFXFXFXFXvXZXFXVXZXvXFXcX6 e e p p t t y t y y t t , d n   o     X . ",
"                      . A +...0.q.3.i.s.9 - > > 1 1 1 , , , , 1 , = jXMXkXBXkXVXBXBXZXZXCXFXFXFXFXZXFXAXZXFXDXFXq p r f p r p r r r r e y t y e r t b q   .     ",
"                    o   Z } X.-.1.3.a.k.z.< ; > , 1 1 1 1 , 1 , e , e 4 tXjXMXBXVXVXDXDXFXFXFXFXFXFXZXFXZXrX0 p y r i i e r i r r e y e y t y t d u e g m   .   ",
"                        _ [ } ;.1.u.u.y.x.> ; > > > < < < 1 , , 1 t d e e t 5 ! SXVXZXFXZXZXZXFXFXmX/ 6 y a r i i h i p p y y y y y y e r e t t t e e e 2 T .   ",
"                  .     S O.X.;.1.s.g.i.f.- ; > > > < < < < , , , > e r , t , u y e e r r r r p y i k y s p i r p i r e i p y t f d r t e , t t e e t e e 1 b R ",
"                        L G { @.1.q.h.j.d.- - < < < < < < 1 , , t 1 t , y e e r y t e r i i y p y i r p r i p h j p p u r e e > q 4 X   o         . . o     . w ",
"                        S G O...1.2.u.u.y.: - < ; < < < > 1 1 1 > , 1 t , e y t y y y y y p y t i h i p j r p t 7   .         .   .     .               . O   . ",
"                  o     L Z | ..=.2.s.a.g.3 ; - ; ; ; > > > < < , < , e e e e e t y y e r y t > 8 4   .                           .     .                       ",
"                          H } @.;.2.g.u.h.Y..         w = * * 4 * * ; * 4 Y                                                                                     ",
"                    o     J [ @.=.2.g.u.j.n..   . .   .   . .             .                                                                                     ",
"                          Z ] { =.1.g.u.j.c..               .         .     . .                                                                                 ",
"                          _ ] } ..1.3.u.h.c.    . X .   .             .   X                                                                                     ",
"                    .     L F O...0.q.u.j.r.        .         . .   . .   .                                                                                     ",
"                  .       + A O...=.3.u.j.k.        .   X                                                                                                       ",
"                  o       o A O.X.0.2.k.u.i.    .                             o                                                                                 ",
"                  .         A [ ..=.2.t.j.p.            .       .   .     . .                                                                                   ",
"                            Z ] @.-.1.r.h.k.Y.                                                                                                                  ",
"                  o .       Z [ } -.1.9.h.u.c.                                                                                                                  ",
"                            Z ] } -.1.3.h.p.v.                                                                                                                  ",
"                        o . C G } ..1.3.h.p.k.                                                                                                                  ",
"                        o   J.J } @.1.3.h.p.k.                                                                                                                  ",
"                          . . A } ..<.3.u.p.p.                                                                                                                  ",
"                            o ' } ..1.s.p.p.j.                                                                                                                  ",
"                              ' | =.1.d.p.C.C.                                                                                                                  ",
"                .           . o.-.:.3.i.l.B.A.A.                .                   o     o                                                                     ",
"            .         o 5X6X{.U.n.c.Y.W.^.#XtXtX0X5X5X            X                                                                                             ",
"                        _.).).`.].{.[.4X6X5X0X0X0XaX5X          o       .     .           O                                                                     ",
"              .           }.}.].{.[.4X4X5X5XdXdXaXfXsX    X         . .     X   o     .                                                                         ",
"                          ].].{.[.3X4X5XyXdXnXnXNXMXMXdXgXdXdXgXgXdX          O     o                                                                           ",
"            X     '.'.).).{.{.[.4X4X6XyXiXnXMXAXAXDXAXdXMXMXBXMXAXNXMXMXgX    .       o                                                                         ",
".     gXsXsXfXdXdXyX[.}.'.{.].[.4X4X5XyXdXnXAXCXDXCXCXBXBXxXxXxXzX6X&X:X&X  o   . o                                                                             ",
"      ).[.5XsXgXmXnXkXmXnXkXgXnXnXBXkXgXsXhXeX5X6X&X&X&X*X*X*X*X:X;X-X:X-XW.B.D.~..     o                                                                       ",
"  X   L.L.L.J.L.L.L.I._._._._.`.`.`.`.+X=X=X=X%X%X%X*X;X<X<X<X1X1X<X1X#XW.V.V.N.%.o     o                                                                       ",
"Y.A A K.L.P.P.P.I.I.I.I.I.`.`. X X@X@X@X%X%X-X-X-X-X1X>X>X>X!.E.S.V.N.a.a.8.r.9.5.    O                                                                         ",
") X.v.v.A.v.v.c.c.Y.Y.T.T.T.R.R.R.W.W.E.E.F.G.A.k.8.M.6.7.9.9.a.9.8.M.8.6.8.7.e.5..   .                                                                         ",
") ) C C C ) C ) _ _ _ `  . . . .X.X.X.$.$.<.<.<.<.r.2.9.7.7.6.r.8.r.6.r.8.7.e.6.e..         o                                                                   ",
"C ) V V V V D ) _ _ _ ` `  . . .#.#.$.$.$.$.<.5.5.5.5.5.7.7.6.r.7.6.r.6.6.7.r.5.%.                                                                              ",
". C C ( % % C C ) _ _ _ ` `  . . . .$.$.$.$.$.<.5.5.e.7.9.6.6.e.7.7.8.8.M.7.M.M..       O                                                                       ",
"o C B V & % % ) ) ) _ _ ` ` `  . . .$.$.$.$.$.%.5.5.5.e.5.6.7.7.7.M.m.      .       o     .                                                                     ",
"    o ( % ( ( ( ) ) ) _ ` ` ` ` #. .#.#.#.#.#.#.%.#.m.    o                         .   o                                                                       "
};
