/* XPM */
static char *_3e8abacd67443b59345340af0a52f47VMZnlYj2lHI1S59P[] = {
/* columns rows colors chars-per-pixel */
"80 80 216 2 ",
"   c #010101",
".  c #090003",
"X  c #000801",
"o  c #02010A",
"O  c #0A000A",
"+  c #100003",
"@  c #5E0601",
"#  c #590902",
"$  c #630501",
"%  c #690600",
"&  c #620B03",
"*  c #750C01",
"=  c #7C0D01",
"-  c #7D0F09",
";  c #761101",
":  c #7C1101",
">  c #7F1903",
",  c #820D01",
"<  c #8B0E02",
"1  c #830705",
"2  c #940E02",
"3  c #980F02",
"4  c #940F0A",
"5  c #821101",
"6  c #8D1401",
"7  c #8D1902",
"8  c #8E120B",
"9  c #81100A",
"0  c #941401",
"q  c #9A1303",
"w  c #921902",
"e  c #991903",
"r  c #94150A",
"t  c #9B140A",
"y  c #93190C",
"u  c #9A1A0B",
"i  c #8D1E13",
"p  c #941816",
"a  c #AD0F02",
"s  c #B40F09",
"d  c #A41502",
"f  c #AE1702",
"g  c #A61A01",
"h  c #AC1A02",
"j  c #AE160B",
"k  c #AD1A0A",
"l  c #A01309",
"z  c #B21502",
"x  c #B21903",
"c  c #BE1D01",
"v  c #B2150A",
"b  c #B41A0B",
"n  c #BC1807",
"m  c #B21612",
"M  c #8A2519",
"N  c #972C1C",
"B  c #AE2201",
"V  c #BD2201",
"C  c #BE230B",
"Z  c #AE241E",
"A  c #A82919",
"S  c #BB2314",
"D  c #BC2B1C",
"F  c #B62A19",
"G  c #931A29",
"H  c #8C2224",
"J  c #9A2925",
"K  c #992826",
"L  c #9C3225",
"P  c #963135",
"I  c #A13325",
"U  c #AB3728",
"Y  c #B0372E",
"T  c #A02D34",
"R  c #BB3538",
"E  c #AC3432",
"W  c #C31601",
"Q  c #CA1603",
"!  c #C51E05",
"~  c #C51D02",
"^  c #CA1A01",
"/  c #CA1D01",
"(  c #CA1C03",
")  c #C41C0B",
"_  c #CA1C0A",
"`  c #C61609",
"'  c #D11B03",
"]  c #C51A14",
"[  c #FB0403",
"{  c #C12100",
"}  c #C62102",
"|  c #C52105",
" . c #C32102",
".. c #CA2104",
"X. c #C4210A",
"o. c #CC210A",
"O. c #D8240A",
"+. c #C3321F",
"@. c #ED2805",
"#. c #F22506",
"$. c #FE2605",
"%. c #F42B02",
"&. c #FE2B05",
"*. c #FE260A",
"=. c #F52C0A",
"-. c #FE2B0A",
";. c #FD3003",
":. c #FB310C",
">. c #F53005",
",. c #E12210",
"<. c #FD2E13",
"1. c #FA3316",
"2. c #FD351B",
"3. c #FD391E",
"4. c #F73713",
"5. c #C33521",
"6. c #D93720",
"7. c #FD3720",
"8. c #FE3821",
"9. c #FC3329",
"0. c #A94933",
"q. c #FD411E",
"w. c #D24529",
"e. c #FE4320",
"r. c #FB4D39",
"t. c #F14D34",
"y. c #BA4E49",
"u. c #AB5352",
"i. c #D0484A",
"p. c #C85A54",
"a. c #D54C53",
"s. c #E15F5F",
"d. c #FE5E5D",
"f. c #F65952",
"g. c #FD5844",
"h. c #D96353",
"j. c #FD6454",
"k. c #F36B55",
"l. c #F5665C",
"z. c #FD655D",
"x. c #F66B5C",
"c. c #FD695C",
"v. c #FA6754",
"b. c #FB5C61",
"n. c #DC6C61",
"m. c #DD7265",
"M. c #DC7C70",
"N. c #F76662",
"B. c #FE6661",
"V. c #F56D63",
"C. c #FD6962",
"Z. c #FF6669",
"A. c #FC6A6A",
"S. c #F26C6D",
"D. c #FC7B6F",
"F. c #FA796C",
"G. c #FF6773",
"H. c #F77471",
"J. c #FE7775",
"K. c #FD7D76",
"L. c #FD777C",
"P. c #F67D79",
"I. c #FE7E79",
"U. c #E7706D",
"Y. c #C1803C",
"T. c #F9826E",
"R. c #F58172",
"E. c #FD8175",
"W. c #F6817B",
"Q. c #FD817B",
"!. c #F88D7B",
"~. c #FE7C81",
"^. c #FC7B87",
"/. c #F68381",
"(. c #FD8383",
"). c #FD8C86",
"_. c #FB8D8B",
"`. c #F79387",
"'. c #F6968A",
"]. c #FD948D",
"[. c #F59A8C",
"{. c #FE9B8D",
"}. c #F79886",
"|. c #FF8E91",
" X c #FE8E99",
".X c #F68F90",
"XX c #EC9490",
"oX c #F69592",
"OX c #FE9493",
"+X c #F59A93",
"@X c #FD9994",
"#X c #FE959A",
"$X c #FE9A9B",
"%X c #F49A9A",
"&X c #FEAA96",
"*X c #FCA49D",
"=X c #FCAA9C",
"-X c #F7A69A",
";X c #FF94A0",
":X c #FF9BA3",
">X c #F69FA7",
",X c #CDABA2",
"<X c #F6A4A6",
"1X c #FDA5A4",
"2X c #F7ABA4",
"3X c #FDABA5",
"4X c #FDA6A9",
"5X c #F5ACAC",
"6X c #FCACAB",
"7X c #FEB2A6",
"8X c #FEB5AB",
"9X c #FCA7B0",
"0X c #F9AAB4",
"qX c #FDB9B7",
"wX c #FFBCC2",
"eX c #FEFFF7",
/* pixels */
"                                                  .   o       .   .     . .   .       .           o             .   o   a.F W @.Z .                             ",
"                                                  o                     o .             o       o   . o       i. .( ~ ) ~ { @.z f       o     .                 ",
"                                                    .       o   .     o                           ,XD ^ ~ _ V ~ ~ / ~ ' ^ #.h v x J     .                       ",
"                                                    . .   .       .     X         X o . U.D c ! ~ ~ c | / { V ~ ! ~ ~ V #.h h h h g         .                   ",
"                                                .           .             O qXF ! ~  .^ { W / ~ ~  ._ ! ~ / | ! _ ~ / #.d g b f h h R .     X                   ",
"                                                .     o X   .     m.o.~ ~ ^ ~ ~  ./ W C o.c ..Q ! n ~ ^ _ ! ~ ` ~ ~ #.f k x f g g k z     .   o                 ",
"                                                  .   ^.F ~ ~ ) ^ ( ~ ~ ..!  ./ ~ ~  .~ ~ ~ ~ c ! c ~ o.c c ( V V @.z k v k d b h v z y..                       ",
"                                                7X] V ~ ~ ! ! ~ | c | ~ ~ | ! ~ ~ | { ^  ._ ^  .^ ! ~ ~ ~ ~ ~ n #.f h h f h f z f z h k       o                 ",
"                                  O       .     +X~ ~ { ~ ~ ~ / ~ ~ { | ~ ~  .~ ^ |  .~ ( ) ! / ` ~ { ! ( ~ { O.f f f f f f f f h d z h M   .                   ",
"                                      . X      XOXn ~ | ~ ! ! ~ ^ ~ ~ ~ ~ | ! ^ V ! ~ { { ~ ....~ { ~ ~ C ~ ,.z f f f f f f f f z h k f B o .                   ",
"                                            qX].@X+.^ ! ~ ~ ~ ~ _ ~  ./ ~ ~ ~ _ ! ~ ^ _ ! c { ~ ` V ` ~  ...a f f f f f f f f f x g x g s h.                    ",
"                                .   .     . OX@X#Xh.^ ! c ~ ~ ~ c { ~ ~ / ..| c ! ..~  .~ ~ / ~ ~ / _ / x z k b f f f f f f f f f h f h h j . .                 ",
"                                  o     . +XOXOX#X[.~ ! V ^ ~ ~ ~ o.~ ~ | c c { ~ } ~ c ) _ ( ~ _ x / W x f d f f f f f f f f f h h b h h z                     ",
"                                    X   0X].OX@XOX7X~ ~ { ~ ~ ~ ~ ~ ( o.| ~ / ^ ~ _ o.~ ~ } ~ / ~ w.g h f h h z f f f f f f f f s v h z h z g                   ",
"                                .       OX@X+XOXOX6X~ ~  .~ ~ ~ { ~ ! ~ ~ / ~ ) ..~ ~ ..h.4XD.&.$.*.Z h v g z k f f f f f f f f g j v v h f z                   ",
"                                      $XOX#XOXOX@X1X .( ~  .~ ! ^ ! | ~ ../ 5.!.$Xt.$.$.=.;.&.-.&.%.5Xh j h h v f f f f f f f f v h h h k h j x                 ",
"                        .     .   .   #XOX@X].@X#X+X~ ~ ) V _ ~ | 6.3XOX:.&.*.&.$.$.$.$.&.&.&.&.*.;.=.g z k k z f f f f f f f f f f f f f f f f         .     . ",
"                X .   .         o   .X@X@X].@X#X].{./ ~ L.&Xg.=.$.&.=.*.&.&.*.%.$.&.&.$.&.&.&.&.&.&.*.3Xx f z h f f f f f f f f f f f f f f f f x o   .         ",
"                    .   .       O 1X@XOXOXOX{.#X#X[.-.$.=.&.*.$.*.&.&.&.&.&.-.:.&.&.&.&.&.&.&.$.-.&.-.:.v h x k f f f f f f f f f f f f f f f f k         .     ",
"                        .         ].$X@X'.;XOX].#Xq.&.&.&.$.;.*.&.*.-.&.&.&.%.$.&.&.&.&.&.&.$.$.-.&.=.%.0Xg k f f f f f f f f f f f f f f f f f h h o         o ",
"                . . .     X      X@X_.#X@XOX#X].5X*.&.-.&.-.&.&.&.;.$.$.-.&.;.&.&.&.&.&.&.&.$.$.&.&.*.:.7.z x v f f f f f f f f f f f f f f f f j d       o     ",
"                  X       .   0X+XOX{.@XOXOXOXOX*.-.%.&.$.&.$.$.-.&.$.*.$.$.-.&.&.&.&.&.&.&.&.$.*.*.$.%.$.6Xf g f f f f f f f f f f f f f f f f f z k     .     ",
"                . .         . #X#XOX].].@XOX].j.&.&.$.%.-.-.&.*.*.$.*.&.;.;.%.;.$.$.&.&.&.&.&.&.%.-.&.$.*.r.z d f f f f f f f f f f f f f f f f h x d   o       ",
"                  . X       #XOX@XOX@X#X].OX4X$.>.&.-.-.&.&.&.&.&.&.&.$.$.-.$.$.$.$.&.&.&.&.&.&.-.&.$.&.*.*.-Xz f f f f f f f f f f f f f f f f v g z Z       o ",
"                  .       wX].#X#X@X#X].#X#X&.$.&.$.$.$.$.$.&.$.$.$.&.&.&.$.$.$.$.$.$.&.&.&.&.&.&.%.&.-.&.*.f.f x f v h h v f f f f f f f f f f k v g h   .     ",
"                      .   @X#X].@X].OXOXoXE.*.-.&.&.&.&.&.&.&.&.&.$.$.&.&.$.&.$.$.$.$.$.$.$.$.$.*.&.&.$.-.&.%.[.g b h f v f g x f f f f f f f f h h b f D   o   ",
"                  o     :XoX X@XOX[.#X@X=X*.*.-.-.-.$.$.$.*.*.*.&.&.&.&.&.&.$.&.&.&.&.&.&.&.&.&.*.%.*.-.-.$.&.V.v j h h k h f h f f f f f f f f x g f v z       ",
"                      . [.#XOXOX}.@XOXoX9.3.8.4.8.7.7.7.7.8.8.8.3.3.3.2.2.1.1.1.<.<.<.<.<.<.<.<.-.:.<.<.:.-.2.-.).h z f h x f x f f f f f f f f h k h h h R o   ",
"                .   . @X@X].OXOXOX@X|.>XE.E.K.Q.K.K.K.K.K.K.I.I.I.I.I.I.I.I.I.K.I.I.I.I.I.I.I.I.K.Q.K.L.W.I.P.E.*Xg k f z x d f f f f f f f f f z d f f z f     ",
"                .   4XOXOX@X].@X].].:XE.Q.P.^.E.I.Q.I.I.I.I.I.I.P.I.I.I.I.I.I.I.I.I.I.I.I.I.I.I.P.I.K.I.K.K.Q.P.I.m.g h z z k h f f f f f f f f v z f z x z R   ",
"                    ].@X].@X@XOX#X|.W.Q.K.Q.I.E.K.I.I.I.I.K.I.I.K.K.K.K.K.K.K.K.K.K.K.K.K.K.K.K.I.K.~.K.E.I.P.I.Q.=Xj f v h z f f f f f f f f f k z h f d x h . ",
"                o #XOX@XOXoX@XOX].3XJ.I.K.Q.(.K.Q.Q.Q.Q.I.I.I.I.I.I.I.I.I.I.I.I.I.I.I.I.I.I.I.I.I.I.E.E.~.L.K.R.I.I.n.z g h f x f f f f f f f f h g k v z h g qX",
"        . o     <X@XOX{.OX X@X{.@XW.K.I.K.I.I.K.Q.I.I.I.I.I.I.I.I.I.I.I.I.I.I.I.I.I.I.I.I.I.I.Q.K.Q.K.I.Q.I.I.I.Q.K.-Xm k h h f f f f f f f f f z h z g h x s h ",
"              X |.@X].|.@XOX@X@Xe.:.-.&.&.$.$.&.-.$.$.$.$.$.$.*.*.*.$.$.$.$.$.$.&.&.&.&.&.-.-.-.$.-.$.*.$.$.*.$.*.-.&.S f v m d h h h h h h h h g v j v h g a g ",
"              #X}.#X#X].OX@X`.6X:.&.&.&.&.&.$.&.$.$.$.$.$.$.$.$.$.$.$.$.$.$.$.$.$.&.$.$.&.&.&.&.$.$.&.$.$.$.&.&.&.-.5X^ } ~ ~ | _ _ _ _ _ _ _ _ ~ ~ ~ | ~ _ } . ",
"            5X].OX$X'.OX@XOX{.&.-.$.$.$.&.-.$.*.&.&.&.&.&.&.$.$.$.$.&.&.&.&.&.&.*.*.*.*.*.*.*.*.*.$.&.-.&.&.&.&.;.r.) ~ !  ._ ~ ~ ~ ~ ~ ~ ~ ~ ~ _ ~ / ! ~ / S   ",
". .   o .   OX@X#X#XOX@X`.OXA.=.$.*.$.$.&.*.$.$.$.$.$.$.$.$.$.$.$.$.$.$.$.$.$.$.$.$.$.$.$.$.$.$.$.&.&.$.$.$.$.-.&.%X~  .~ c _ ..~ ~ ~ ~ ~ ~ ~ ~ ~ ..~ ~  .'   o ",
"          $XOXOXOX}.$X}.#X1X-.*.$.&.&.$.-.=.=.$.&.&.&.&.&.&.&.&.&.&.&.&.&.&.&.=.&.&.&.&.&.&.&.&.$.-.-.&.$.-.*.&.1X! ~ ) / ! ~  .~  .~ ~ ~ ~ ~ ~ ../ V / ) u.    ",
"        eX].OX@X].{.OX@XOXK.E.K.I.Q.K.I.I.P.Q.K.I.I.I.I.I.I.I.I.I.I.Q.Q.Q.Q.Q.Q.Q.Q.Q.Q.I.I.I.I.I.Q.I.K.I.I.P./.r ) } ~ V _ c ~ ~ ~ ~ ~ ~ ~ ~ ~ c ~ } { ~   o   ",
"  .     #X@X].OX@X#XOXOX+XQ.~.K.I.Q.K.I.I.I.Q.I.I.I.I.I.I.I.I.I.I.I.I.I.I.I.I.I.I.I.I.I.I.I.I.I.I.P.Q.I.I.P./.*X8 0 q ~ / ! _ ~ ~ ~ ~ ~ ~ ~ ~ ~ X.^  .) .       ",
"      5X].OX].@X[.$X#X*XQ.I.W.I.I.I.I.I.I.I.I.I.I.I.I.I.I.I.I.I.I.I.Q.Q.I.I.I.I.I.I.I.I.I.I.I.I.I.P.I.I.Q.K.@X0 0 0 6 q ) ( ~ ~ ~ _ { ! ) ~  ._ / ~ ~ A   o     ",
"      ;XOX{.@X#XOXOXI.3XI.E.J.~.I.I.I.I.I.I.I.I.I.I.I.I.I.I.I.I.I.I.I.I.I.I.I.I.I.I.I.I.I.I.I.I.I.K.L.Q.I.I.0.e 2 e q 0 7 g Q ....c | ~ / { ~ ~ ! ! ! .       O ",
"o   OX@XOX@X#XOXI.-X3X7X~.K.(.K.I.I.I.I.I.I.I.I.I.I.I.I.I.I.I.I.I.I.I.Q.I.I.I.I.I.I.I.I.I.I.I.I.K.Q.Q.L.Q.2Xq r 0 0 6 e 0 6 q ` ~ / ! ! ^ / ~ / ~ ~     X       ",
"  5X+X|.$X~.(.=X*X4X3X=XOXK.~.E.I.I.I.I.I.I.I.I.I.I.I.I.I.I.I.I.I.I.I.I.I.I.I.I.I.I.I.I.I.I.I.I.Q.K.L.Q._.6 0 6 7 q q 6 0 0 0 0 n ..~ X.! c _ ! ~ F   o o X     ",
"  #X{.K.+X6X3X3X3X1X4X1X5XQ.K.R.I.I.I.I.I.I.I.I.I.I.I.I.I.I.I.I.I.I.I.I.I.I.I.I.I.I.I.I.I.I.I.I.L.E.I.I.M.7 3 0 q 6 0 2 6 0 e 6 6 6 ~ ' ~ V ) ( _     o     .   ",
").I.4X3X*X1X1X9X4X4X6X3X8XP.K.K.I.I.I.I.I.I.I.I.I.I.I.I.I.I.I.I.I.I.I.I.I.I.I.I.I.I.I.I.I.I.I.I.Q.I.K.3Xw q 0 0 0 0 0 0 0 6 6 e 0 t 6 W ( ( ~ { P       o   o . ",
"*X1X3X=X3X6X4X4X4X*X*XB.d.3XI.~.I.I.I.I.I.I.I.I.I.I.I.I.I.I.I.I.I.I.I.I.I.I.I.I.I.I.I.I.I.I.I.I.K.I.Q.r e 2 6 0 0 0 0 0 0 0 0 6 6 0 e 0 6 _ { ] .       .       ",
"5X9X1X4X<X<X4XF.N.V.@X3X*X6XT.Q.I.I.I.I.I.I.I.I.I.I.I.I.I.I.I.I.I.I.I.I.I.I.I.I.I.I.I.I.I.I.I.I.K.I.*X6 6 w q 7 q 6 6 w 0 0 0 e r q e 0 8 w ~     . . .     .   ",
"  3X4X+XZ.B.W.3X3XW.Z.z.c.A./.Q.I.Q.I.I.P.P.I.K.I.I.I.I.I.I.I.I.I.I.I.I.I.I.I.I.Q.I.Q.Q.I.Q.Q.I.W.{.6 q 0 0 q 6 0 0 0 0 0 0 0 0 0 0 0 q w 0 L                   ",
". z.x.*X5X).c.z.B.C.z.c.l.N.7X~.I.I.I.I.Q.Q.I.K.I.I.I.I.I.I.I.I.I.I.I.I.I.I.I.I.K.I.I.I.Q.J.I.W.Q.A w 0 6 6 e 0 0 0 0 0 0 0 0 0 w 6 q 7 q q                     ",
"  [ b.B.l.v.A.z.z.l.B.c.V.B.{.~.I.Q.K.K.P.I.I.I.I.I.I.I.I.I.I.I.I.I.I.I.I.I.I.I.I.Q.K.K.I.I.P.Q.&X0 0 0 q 0 0 0 0 0 0 0 0 0 0 0 6 q 0 0 0 X                     ",
"    C.c.A.B.C.A.C.l.C.l.B.z.x.*XI.I.I.K.I.I.K.Q.I.I.I.I.I.I.I.I.I.I.I.I.I.I.I.I.I.K.I.Q.I.I.L.`.6 t q 6 0 0 6 0 0 0 0 0 0 0 0 0 0 w t 6 p     o                 ",
"    V.z.Z.N.l.x.x.C.C.N.C.C.z.3XP.K.I.Q.Q.I.K.Q.I.I.I.I.I.I.I.I.I.I.I.I.I.I.I.I.I.P.Q.K.P.I.P.m.q 0 < 0 0 6 w 0 0 0 0 0 0 0 0 0 0 0 2 e o                       ",
".   o z.V.B.c.c.N.Z.B.B.B.z.B.H._.I.I.K.K.I.K.Q.I.I.I.I.I.I.I.I.I.I.I.I.I.I.I.I.I.Q.H.Q.Q.I.&Xq 0 7 w q q 2 0 0 0 0 0 0 0 0 0 0 w 0 t                           ",
"      x.j.B.Z.z.Z.z.C.V.z.z.C.x.*X(.I.I.K.I.I.Q.I.I.I.I.I.I.I.I.I.I.I.I.I.I.I.I.I.I.Q.I.P.W.6 6 3 0 0 < 6 w 0 0 0 0 0 0 0 0 0 0 0 r 8         .                 ",
"o     s.z.A.B.C.c.x.z.x.c.A.Z.c.*XP.J.I.I.Q.P.K.I.I.I.I.I.I.I.I.I.I.I.I.I.I.I.I.I.K.K.I.~.[.q 0 6 0 q 0 w 6 0 0 0 0 0 0 0 0 0 0 t 0     . o                     ",
"        z.c.d.C.B.B.C.B.B.C.C.C.c.*X~.R.L.K.L.P.Q.P.Q.Q.K.K.I.L.I.I.I.E.E.K.I.I.I.K.I.I.*X0 q 6 0 0 0 0 0 0 0 0 6 q q 0 8 6 w r 0 E .   .                       ",
".   .   Z.l.C.N.B.B.C.B.B.C.C.C.l.6XE.I.Q.K.I.E.E.K.I.~.I.I.I.I.Q.I.I.I.I.L.I.Q.R.Q.K.~.I 6 w q 0 0 0 0 0 0 0 0 r 0 w 0 w 0 0 0 8             .                 ",
"          C.x.Z.z.B.C.B.z.C.C.C.C.L.K.I.K.P.I.F.K.I.I.I.K.E.K.D.K.Q.K.K.Q.P./.OX4X6X4X<Xr e 0 0 0 0 0 0 0 0 0 0 0 0 6 e 0 0 6 q   . .         .                 ",
"  .   . o z.C.l.z.z.C.B.z.C.C.C.z.N.5XQ.I.I.K.I.Q.Q.J.I.I.P.W.).*X6X2X5X3XM.U 0 7 0 u 0 = 6 0 0 0 0 0 0 0 0 0 0 0 r q 6 q q 0 p o   X o   o                     ",
"  .   o   H.C.z.B.B.C.z.z.C.C.C.c.z.4XW.I.L.Q.W.%X3X6X5X5XXXy.8 8 6 0 0 0 0 0 0 0 e 0 0 = w e 6 0 0 0 0 0 0 0 0 0 q 6 w 0 6 0 . X o .                           ",
"  o   o     j.A.B.B.C.z.B.C.C.C.c.B.A.3X&X2Xp.i , e 0 , = : = 6 0 0 t t 3 q q 0 q r q 0 q = 6 0 0 0 0 0 0 0 0 0 w 0 0 0 0 w           . o     X                 ",
"      .     A.B.B.B.C.z.B.C.C.C.c.N.N - = - * : 1 r 0 6 = : = = 0 e 0 6 0 q 3 t 0 q 6 q 0 < : 2 0 0 0 0 0 0 0 0 0 e 0 2 e t o           X     .                 ",
"  o           l.B.B.C.B.B.C.C.C.B.z.# ; , 5 , , : 7 0 6 = = : 5 q q e 0 0 0 0 w 0 q 7 q 0 q = 6 0 0 0 0 0 0 0 0 0 0 y 0 0               .     o                 ",
"      .       x.z.B.C.B.z.z.B.B.B.z.% = ; : = , = 0 0 q = : = = 0 0 0 0 0 0 0 q 0 0 0 0 0 e 8 , 0 6 0 0 0 t 6 0 0 r 0 0 E                                       ",
"    o     o . N.B.c.C.B.z.V.N.C.z.I ; , = = , = = 0 0 q = : = = 0 0 q 0 0 0 0 q 0 0 0 0 0 e w , 5 q 0 6 q 0 0 0 0 0 7 q .     o                                 ",
".     o   . X X c.Z.z.C.C.l.C.B.C.@ = 5 , = , = = 0 0 q = = = = 0 0 0 0 0 0 0 q 0 0 0 0 0 0 e 6 5 0 0 0 e 6 0 0 r 5 0   .                                       ",
"  .     X       k.G.B.c.l.c.B.B.N.& = : = * , : = 0 0 q = = = = 0 0 0 0 0 0 0 0 q 0 0 0 0 0 0 0 6 = 0 q 6 0 0 0 2 e p   o     o                                 ",
"                U.B.c.c.C.c.z.C.p * = : : = , = = 0 0 q = = = = 0 e 0 0 0 0 0 0 q q 0 0 0 0 0 0 q ; 5 q 0 0 0 0 0 0   .     o .                                 ",
"            .     v.k.B.B.A.c.B.& : = , = = 5 = = 0 0 q = = = = 6 e 0 0 0 0 0 0 0 q 0 0 q 0 0 0 q 8 * 6 q 0 0 0 q                                               ",
".     . .   X . o A.c.B.l.C.z.C.& = = , = = = = = 0 0 q = = = = 6 0 e 0 0 0 0 0 0 q 0 0 0 0 0 0 0 q 5 5 0 0 0 0 p   .     . o                                   ",
".         X         A.x.Z.z.A.L - - ; = - : : = = 0 0 q = = = = , 6 e 0 0 0 0 q 0 e 0 0 e 0 e 0 e 0 r = 5 0 0 0   . O         .                                 ",
"                  o c.A.z.Z.z.& = = : = = = , = = y e 0 * 9 = = = t 0 w q u 6 q q 0 w q q 0 q 0 0 0 e 4 = 7 8 0.                                                ",
"                    S.z.c.c.l.$ 5 , = = : = = : , 0 0 0 5 = , : 5 6 q 0 0 q q 0 q e 0 6 0 0 0 w 0 e 2 w , , 8                                                   ",
"                    . V.z.B.H ; = 5 = , = , = , , 6 r q = = , ; * w e 0 q 0 q 0 7 6 t t w e < e 0 0 w 0 0 *   .                                                 ",
"                      Z.c.C.$ = = = = , = : = : ; q 8 6 : ; = , = t 6 0 w w 3 0 q q 6 2 0 7 q p Y eX  . o   .                                                   ",
"                    o [ B.x.& = ; , : = ; * , - = 0 q 0 : , = : = 2 t 0 d 0 t t G     .         . . o o . o .                                                   ",
"                    o   Z.J * : ; , * < : * : = , q 3 q 5 = = = > H     o   .           .     o   o                                                             ",
"                        x.% 9 = = = , = : = = , : p.    o   .       +   .   X X   .                     .   .                                                   ",
"                  o   o X @ = : : M T       o       o     .               .           .     .     .       .   o                                                 "
};
