/* XPM */
static char *b2c2aecae3f84d3b91488e8b960df5afHx5xIeQZHRuhr7kZ[] = {
/* columns rows colors chars-per-pixel */
"80 80 256 2 ",
"   c black",
".  c #010101",
"X  c #020202",
"o  c gray1",
"O  c #040404",
"+  c gray2",
"@  c #060606",
"#  c #070707",
"$  c gray3",
"%  c #090909",
"&  c gray4",
"*  c #0B0B0B",
"=  c #0C0C0C",
"-  c gray5",
";  c #0E0E0E",
":  c gray6",
">  c #101010",
",  c #111111",
"<  c gray7",
"1  c #131313",
"2  c gray8",
"3  c #151515",
"4  c #161616",
"5  c gray9",
"6  c #181818",
"7  c #191919",
"8  c gray10",
"9  c #1B1B1B",
"0  c gray11",
"q  c #1D1D1D",
"w  c #1E1E1E",
"e  c gray12",
"r  c #202020",
"t  c gray13",
"y  c #222222",
"u  c #232323",
"i  c gray14",
"p  c #252525",
"a  c gray15",
"s  c #272727",
"d  c #282828",
"f  c gray16",
"g  c #2A2A2A",
"h  c gray17",
"j  c #2C2C2C",
"k  c #2D2D2D",
"l  c gray18",
"z  c #2F2F2F",
"x  c gray19",
"c  c #313131",
"v  c #323232",
"b  c gray20",
"n  c #343434",
"m  c #353535",
"M  c gray21",
"N  c #373737",
"B  c gray22",
"V  c #393939",
"C  c #3A3A3A",
"Z  c gray23",
"A  c #3C3C3C",
"S  c gray24",
"D  c #3E3E3E",
"F  c #3F3F3F",
"G  c gray25",
"H  c #414141",
"J  c gray26",
"K  c #434343",
"L  c #444444",
"P  c gray27",
"I  c #464646",
"U  c gray28",
"Y  c #484848",
"T  c #494949",
"R  c gray29",
"E  c #4B4B4B",
"W  c #4C4C4C",
"Q  c gray30",
"!  c #4E4E4E",
"~  c gray31",
"^  c #505050",
"/  c #515151",
"(  c gray32",
")  c #535353",
"_  c gray33",
"`  c #555555",
"'  c #565656",
"]  c gray34",
"[  c #585858",
"{  c gray35",
"}  c #5A5A5A",
"|  c #5B5B5B",
" . c gray36",
".. c #5D5D5D",
"X. c gray37",
"o. c #5F5F5F",
"O. c #606060",
"+. c gray38",
"@. c #626262",
"#. c gray39",
"$. c #646464",
"%. c #656565",
"&. c gray40",
"*. c #676767",
"=. c #686868",
"-. c DimGray",
";. c #6A6A6A",
":. c gray42",
">. c #6C6C6C",
",. c #6D6D6D",
"<. c gray43",
"1. c #6F6F6F",
"2. c gray44",
"3. c #717171",
"4. c #727272",
"5. c gray45",
"6. c #747474",
"7. c gray46",
"8. c #767676",
"9. c #777777",
"0. c gray47",
"q. c #797979",
"w. c gray48",
"e. c #7B7B7B",
"r. c #7C7C7C",
"t. c gray49",
"y. c #7E7E7E",
"u. c gray50",
"i. c #808080",
"p. c #818181",
"a. c gray51",
"s. c #838383",
"d. c #848484",
"f. c gray52",
"g. c #868686",
"h. c gray53",
"j. c #888888",
"k. c #898989",
"l. c gray54",
"z. c #8B8B8B",
"x. c gray55",
"c. c #8D8D8D",
"v. c #8E8E8E",
"b. c gray56",
"n. c #909090",
"m. c gray57",
"M. c #929292",
"N. c #939393",
"B. c gray58",
"V. c #959595",
"C. c gray59",
"Z. c #979797",
"A. c #989898",
"S. c gray60",
"D. c #9A9A9A",
"F. c #9B9B9B",
"G. c gray61",
"H. c #9D9D9D",
"J. c gray62",
"K. c #9F9F9F",
"L. c #A0A0A0",
"P. c gray63",
"I. c #A2A2A2",
"U. c gray64",
"Y. c #A4A4A4",
"T. c #A5A5A5",
"R. c gray65",
"E. c #A7A7A7",
"W. c gray66",
"Q. c #A9A9A9",
"!. c #AAAAAA",
"~. c gray67",
"^. c #ACACAC",
"/. c gray68",
"(. c #AEAEAE",
"). c #AFAFAF",
"_. c gray69",
"`. c #B1B1B1",
"'. c #B2B2B2",
"]. c gray70",
"[. c #B4B4B4",
"{. c gray71",
"}. c #B6B6B6",
"|. c #B7B7B7",
" X c gray72",
".X c #B9B9B9",
"XX c gray73",
"oX c #BBBBBB",
"OX c #BCBCBC",
"+X c gray74",
"@X c gray",
"#X c gray75",
"$X c #C0C0C0",
"%X c #C1C1C1",
"&X c gray76",
"*X c #C3C3C3",
"=X c gray77",
"-X c #C5C5C5",
";X c #C6C6C6",
":X c gray78",
">X c #C8C8C8",
",X c gray79",
"<X c #CACACA",
"1X c #CBCBCB",
"2X c gray80",
"3X c #CDCDCD",
"4X c #CECECE",
"5X c gray81",
"6X c #D0D0D0",
"7X c gray82",
"8X c #D2D2D2",
"9X c LightGray",
"0X c gray83",
"qX c #D5D5D5",
"wX c gray84",
"eX c #D7D7D7",
"rX c #D8D8D8",
"tX c gray85",
"yX c #DADADA",
"uX c gray86",
"iX c gainsboro",
"pX c #DDDDDD",
"aX c gray87",
"sX c #DFDFDF",
"dX c gray88",
"fX c #E1E1E1",
"gX c #E2E2E2",
"hX c gray89",
"jX c #E4E4E4",
"kX c gray90",
"lX c #E6E6E6",
"zX c #E7E7E7",
"xX c gray91",
"cX c #E9E9E9",
"vX c #EAEAEA",
"bX c gray92",
"nX c #ECECEC",
"mX c gray93",
"MX c #EEEEEE",
"NX c #EFEFEF",
"BX c gray94",
"VX c #F1F1F1",
"CX c gray95",
"ZX c #F3F3F3",
"AX c #F4F4F4",
"SX c gray96",
"DX c #F6F6F6",
"FX c gray97",
"GX c #F8F8F8",
"HX c #F9F9F9",
"JX c gray98",
"KX c #FBFBFB",
"LX c gray99",
"PX c #FDFDFD",
"IX c #FEFEFE",
"UX c white",
/* pixels */
"' ] ' { { b c n v b v b m v m b b b b b b b b b b } ` } ' ] Z.B.Z.Z.Z.Z.Z.Z.Z.Z.@ # $ @ $ S.F.A.V.C.' ] [ _ ' b b b v b b n b v n c v N c x n n c N c ' [ ' [ ' ",
"] [ ' ' ` c c b n v M v c b z b b b b b b b b b v ' [ } ' [ B.Z.Z.Z.Z.Z.Z.Z.Z.Z.# # & % $ A.A.S.Z.C.] ` ' [ ' b v M n M c b x m b n v v b m m v c c M ' [ ] ` [ ",
"' ] ] [ [ b n m b c m b n N v m b b b b b b b b m { [ [ ] [ V.C.Z.Z.Z.Z.Z.Z.Z.Z.+ @ # + # F.S.D.V.Z.[ ] ` [ [ b b b z b v M v v b b b b v b n x m b m ] ] ] ` ] ",
"] ' ' { [ c x x n b c b b v b x b b b b b b b b c } ` ] [ ] S.B.Z.Z.Z.Z.Z.Z.Z.Z.# % $ O $ H.S.Z.V.C.' [ ' ` ] v b b m b n v n n n v b M v v M v b m z ] ` [ } ] ",
"{ [ ] ' ( M m v v l N n c v M M n n n n n n n n b ] ' ] ] ' N.D.Z.Z.Z.Z.Z.Z.Z.Z.# # @ + * Z.S.G.H.v.] ` ] { ' C M c n m c v m c x B j c m v c n b v M ' { ) ` ` ",
"_ ] [ ] { ' { ] { X.B.F.F.H.A.A.D.D.D.D.D.D.D.D.Z.D.C.S.H.B.F.B.Z.Z.Z.Z.Z.Z.Z.Z.m m N V b G.B.B.B.A.S.F.S.G.S.A.D.D.S.G.o @ @ + o [ o.` ' } ' ' ] ] ' v k v M l ",
"[ [ [ ` _ } ' ' ' ' S.S.C.A.Z.S.Z.Z.Z.Z.Z.Z.Z.Z.D.Z.A.V.Z.Z.Z.G.Z.Z.Z.Z.Z.Z.Z.Z.n v c b b C.S.G.F.C.F.Z.Z.A.V.V.V.A.A.B.% + + # O [ _ ] [ ] ( ] [ / [ m n c x m ",
"[ _ ' { ] ..) ] { ' Z.Z.B.N.A.B.C.C.C.C.C.C.C.C.Z.D.D.A.Z.D.V.V.Z.Z.Z.Z.Z.Z.Z.Z.v n v b N A.D.V.Z.C.C.V.A.B.F.C.C.B.C.S.O # % # $ } _ } ( ] { _ ` { ' n c N b c ",
"] ' [ ' [ ' ` [ ] { V.D.B.Z.A.A.A.V.S.Z.C.B.Z.V.S.A.C.A.D.F.C.A.C.A.A.A.C.D.C.C.v v m c n Z.A.Z.A.A.Z.B.S.Z.B.A.C.V.A.C.$ @ % # # ] ` } ] [ ] ` ' ( { v n b c n ",
"[ { ] ] _ { } ` [ ] S.N.F.V.C.V.Z.Z.V.V.Z.Z.C.C.V.F.A.C.A.A.C.B.F.A.Z.A.D.C.D.F.b n x b C C.M.A.Z.Z.B.A.A.F.A.S.Z.C.C.C.# @ @ + . _ } [ ` _ { ) ' [ ` v v M M b ",
"{ ` ` [ ' O X X # O z b z c n x c n v x # + O @ % k l x b v k b z c x v v l x k Z.D.Z.D.A.h N c z c [ { ` ( ' ` _ ' ] _ | [ {  . .H.M.C.S.V.'  .{ { { _ [ ` _ ] ",
"_ [ } ] O.  @ $ # @ M n v b c n b x v m + $ & # o v n c x n b z c b c m c n b m D.C.A.Z.S.l x b m z [ ) | ' | [ ] ] ] ' ] ] ' ] ] m.D.N.Z.C.' ' ` ' ] _ [ ] ' ] ",
"} ] _ ] / + @ @ @ = l l m c b m b n N c * + # % ; N z M x m c x m v m m b b x m A.C.D.D.N.x M b x B ` ' | ' ` { ] ' [ ' ] ' [ ] ` K.Z.Z.F.D.} _ ' ' } ) ` ' ' ' ",
"` [ [ { ' X * O + * v V m v m c b n c c @ # O O + l M b b z m c m n M z v b n v Z.S.Z.Z.S.l b M b c } } {  .' { } ] [ | ' { } [ / A.A.A.Z.N.{ ' [ ' } ] [ ] ] [ ",
"[ ` ] ' ) # + @ @ @ M b b m v M b m n M + @ + $ $ M b b n M z m b n j b n n M v Z.A.Z.N.Z.b c M n v | { ` ' ' { ' ` ] ' _ _ ' ' } D.D.F.C.D.' [ ' { ` ] ` { { ` ",
"] [ { ` [ Z.C.F.A.C.[ ` { [ ] [ { ' [ [ [ [ } ' [   @ O @ o [ ' ) | | V.G.D.A.H.' ) ` [ ` ) { _ ] ` l j c k z l k j j l j z z z z z c z x z x x l z x ` } ` ' { ",
"] ] ] ] ' F.Z.Z.Z.C.' ` ' ] ] ] ] ] ] ] ] ] ] ] ' O @ # @ $ ] ] ' ' ] F.C.Z.Z.C.] ] ] ] ] ] ] ] ' [ b b b v v n b b b b b b b b b b b b b b b b n n v ' [ ] [ ' ",
"] ] ] ] ' F.Z.Z.B.V.' [ [ ] ' [ ] ] ] ] ] ] ] ] { o @ $ # # ] [ ' ] { S.S.N.S.Z.] ] ] ] ] ] ] ] ] ' c n v b b b b b b b b b b b b b b b b b b b n v z [ [ ` ` [ ",
"] ] ] ] ' F.Z.Z.Z.A.] ` ' [ [ ' ] ] ] ] ] ] ] ] ] o @ @ + $ ' [ ` { ` S.Z.A.S.C.] ] ] ] ] ] ] ] } ' b n c b n v b b b b b b b b b b b b b b b b b n v ` [ [ [ ] ",
"] ] ] ] ' F.Z.Z.B.Z.` { _ ] ] ' ] ] ] ] ] ] ] ] ' X & # & # ' } ' ' ] S.D.Z.N.Z.] ] ] ] ] ] ] ] _ ' c M v m v n b b b b b b b b b b b b b b b b N x c ] ] ` { ` ",
"] ] ] ] ' F.Z.Z.S.Z.A.B.H.S.D.x b b b b b b b b n m z v z m b v v n c b l c m x v v v b b b b b M b A.Z.C.C.Z.Z.Z.Z.Z.Z.Z.Z.Z.Z.Z.Z.Z.Z.Z.Z.Z.Z.B.S.S.# @ $ O # ",
"] ] ] ] ' F.Z.Z.V.C.C.A.F.A.S.x b b b b b b b b b n b n n n b b b c m n b v v n b b b b b b b b x n C.A.Z.A.V.S.Z.Z.Z.Z.Z.Z.Z.Z.Z.Z.Z.Z.Z.Z.Z.Z.A.V.A.% + @ @ @ ",
"] ] ] ] ' F.Z.Z.S.S.C.V.S.S.F.k b b b b b b b b c n b v v m v b v n c n v B v b v v v v v v v b b n Z.S.Z.A.V.Z.Z.Z.Z.Z.Z.Z.Z.Z.Z.Z.Z.Z.Z.Z.Z.Z.C.Z.G.# @ % & @ ",
"] ] ] ] ' F.Z.Z.V.A.Z.A.F.S.D.z b b b b b b b b n b b b b n v n b m b v n v b b v v v v b b b b n v C.S.V.A.C.Z.Z.Z.Z.Z.Z.Z.Z.Z.Z.Z.Z.Z.Z.Z.Z.Z.C.V.S.% # $ # % ",
"' { ] ` [ B.C.D.A.V.Z.C.V.C.B.k v b v v b b v n v n c n b v b m b b b b b b b b b v m b c M x b v b A.Z.S.D.A.F.D.Z.S.F.Z.S.F.A.S.Z.F.A.A.S.Z.D.D.A.S.& $ # # @ ",
"n x n m b Z b c b M ) ` _ [ ' } ] [ ] ] ] ' ' ] ' z M c v n v c b b b b b b b b } ] ' [ | O O @ $ & ) { ] { ] ` [ [ ] ` M n b b M v M m m l : @ @ $ X { ) ' ] ' ",
"n v b n N x b b n m ' _ { ( } ] ' ] ] ] ] ] ] [ ) B h N M n v m b b b b b b b b ' { ' [ ` # % $ # o  .( [ ] ` } ' ] ' ` n b v n n c c c b b & # # O @ ' } ` [ | ",
"b B b b v c n n c v ` ' [ { ] ] { [ { [ ] ] ] ] } c n v z n b v b b b b b b b b [ ( { _ ] # @ + # @ ' ] [ [ ] ` ' [ ' { c n v n c b n m m M + $ % @ + } _ | ` ` ",
"c b v M b n c n m v ` { ` _ ' _ ] ` ] [ ] [ { ] { b N n z n n v b b b b b b b b _ | ' ' { O + # $ @ ] ] ' ] { [ ] [ ] ] b n v b n n v v v n O @ # # . ) ' ` ] ` ",
"m c b x x v x b m b { ' ] { ] [ ] ` ] [ ` ' [ ' [ v c b n M v b n n n n n n n n | _ ] ' { o $ # @ # [ ` [ ] _ ] ' ' ` | l n b b v n v n b x * % $ # @ { ] ` } [ ",
"S.A.G.A.Z.F.G.A.D.B.` ` [ [ ` +.$.+.#.+.{ ' [ ' } n b b v v V.D.C.C.C.C.C.C.C.C.] _ [ { ' _ [ ' ' ' {  ._ ] [ { ' } } ) G.V.V.S.A.A.C.C.S.F.B.C.Z.A.V.@ @ O % X ",
"A.C.C.S.B.C.A.V.Z.A.} [ _ ] { @.#.@.%.@.[ ` [ ] [ b n v n M V.C.Z.Z.Z.Z.Z.Z.Z.Z.[ ` [ ` ' } ` ` ` | ) ] [ { _ ] ] ] ` ] C.A.Z.C.C.Z.Z.A.D.A.D.A.S.Z.A.# $ $ o * ",
"A.A.Z.A.A.A.S.S.Z.D._ } ( { [ $.@.#.@.$.' [ [ { [ n c b v N B.C.Z.Z.Z.Z.C.C.C.C.[ ' ] ' ] } [ [ ` } ) [ ' ] _ ] ] ' ' ] C.Z.Z.C.A.Z.A.C.C.D.V.D.D.M.A.+ $ + % # ",
"S.A.A.Z.C.C.C.C.V.F._ | [ } ( %.%.%.#.$.' ] ' ' { b v v b c S.S.S.S.S.A.A.A.A.A.( ` [ ' } [ { ` } { ' ] ] { ' ' ` [ { ' A.V.C.S.C.V.A.A.A.Z.C.C.V.D.S.& @ * o O ",
"Z.Z.Z.Z.Z.Z.Z.Z.D.Z.] ) _ ' [ $.@.@.+.@.[ { [ [ { c b c x V Z.C.C.V.V.V.V.V.B.B.[ [ ' ` | ^ | } ..`  .] ` [ [ } } ' _ [ B.S.C.N.Z.V.C.V.B.n.S.V.B.N.D.@ X o # % ",
"] ] ] ] [ [ { { '  .) { ..' _ b c v c n z c c c x z N n m l B c b b b b b v v v b v b m b % % X + % z n m n c z c n m v N n m N m b m M C C ] ' { ' ] [ } [ _ ) ",
"[ [ ] ] ] ] ] ] [ ' [ ] ` `  .l v v v b c b b b b v n b c N m c b b b b b b b b m b v n n o # o # # n b b v n m v v b m c b n n m n b c v v [ [ ' ` ' { ` ` ] ] ",
"[ [ ] ] ] ] ] ] ] ' ' { ` [ [ x n n b n b b b b v M c c m c c b b b b b b b b b c n b v n + & + # @ b v b v n b b n n x M c c b v b b v b v ] [ _ X.` { [ ` { ] ",
"' ' ] ] ] ] ] ] [ [ ' { ' [ ` b v v v v b b v b n x b M b x N b b b b b b b b b b M n c v O # o $ $ b n n b n v v v b x m b b b v n n n n n ` [ ] ' ] _ ] } _ { ",
"] ] ] ] ] ] ] ] ] _ { ] ' ] ] c b b b v n b b n n v m c c N x v b b b b b b b b b b v b m + @ @ + $ v b v c b n n c b N z b m v v n v v b m _ { ] ` ] { ' ` } ` ",
"' [ [ ' ] D.Z.A.Z.Z.A.C.Z.Z.V.o $ # # @ A.Z.Z.Z.D.j b c m b ' ' ' [ { ' ] ] ' [ [ [ ' ` [ F.C.S.Z.A.V.D.V.C.Z.A.Z.Z.Z.Z.Z.Z.Z.Z.V.A.Z.Z.A.Z.Z.A.A.Z.V.Z.Z.Z.A.A.",
"' ] ' ] [ C.A.D.C.B.F.A.V.F.N.o + % @ # C.Z.V.A.A.k z M n x { ' ] ' ' ' { [ ' ] ] [ ] ] [ D.V.S.C.A.C.S.Z.S.Z.V.A.A.A.A.A.A.A.A.D.A.V.A.Z.N.H.N.Z.V.G.C.Z.A.B.C.",
"[ ] ] { ] D.Z.S.S.D.V.Z.C.N.S.O @ $ # $ Z.A.Z.A.S.z c v v c } ` [ [ ] ] ] ] ] ] ` ' ] [ [ F.Z.F.Z.Z.Z.Z.C.A.C.Z.Z.Z.Z.Z.Z.Z.Z.Z.A.N.D.A.V.S.Z.A.A.C.S.Z.A.D.C.D.",
"] ` ` ] ` H.B.Z.V.N.Z.V.S.A.A.  % # # O S.C.Z.B.D.h m c v n ] _ ] { [ [ ` ] { [ [ [ [ ] ' S.V.A.D.Z.A.Z.V.V.V.S.A.A.A.A.A.A.A.A.B.S.Z.S.A.Z.B.Z.S.D.M.C.C.C.C.A.",
"` | { ' | M.S.Z.V.S.V.V.N.C.B.# $ @ * % B.N.A.C.A.l l m v M ` | ' ` ) | [ ] ] ' ' ` _ _ ` G.D.D.B.N.C.V.C.D.S.N.C.C.C.C.C.C.C.C.S.V.V.M.C.B.D.Z.N.D.G.N.A.Z.A.B.",
"} _ ) } ` b n v v b x v b v z c m b c n x b v z c M N n n b l v B v m ( [ ] ] { @ @ @ # * [ { [ { } | ' ` { ( m b b b b b b b b z M b n n b N.A.D.V.V.{ [ ' } [ ",
"_ [ { ' ] x N v b x v V z c b v c m M c M c v M m v k m x n M c m z b _ { ] ' ' $ $ $ # & { } ' ` ' ] ' ' } ] c b b b b b b b b m c v v x v D.A.S.C.G.] ] [ [ ' ",
"[ ' [ ` ` c l n c b c z n c b x m v b m v b m v c b m b N n x b b b B _ ' ] [ ] # $ % @ # ] { ) { ' ' { ' ` { M b b b b b b b b b n v M c M V.Z.G.S.B.[ ' [ [ ] ",
"_  .` ' ' c x N c v v v c v x n b n b v n b v b v n c n v c M c c M n _ } _ [ ' # + # # #  .` ] _ { { ] { ` [ c v v v v v v v v n M x c m b V.C.A.C.V.{ [ [ _ } ",
"{ _ [ _ { v c c n x n B m v M M v b b m v b n n b b v v v M z b M b v ] { ] [ { $ $ $ @ % ` ' ] { [ ' { [ ' ' b v v v v v v v v z b m b b b C.A.A.C.F...` [ ] _ ",
"{ ] ] [ _ ' [  .] [ C.M.C.V.Z.z b c c n c n n v n B.D.Z.A.B.C.S.A.C.C.l l v n v # # # # O V M c c b Z.V.Z.A.S.Z.Z.Z.Z.Z.Z.Z.Z.Z.C.( ' / ..| / ] [ ) ] ( { ] ] [ ",
"] ' [ [ ] ] ] ] { { V.D.F.C.Z.b m n b n b b b v M B.A.Z.V.Z.A.C.C.G.A.l B n v n $ @ @ % # n x x n b M.D.C.F.S.C.Z.Z.Z.Z.Z.Z.Z.Z.S.| `  ._ { [ ' _ | [ ] ] ] ' [ ",
"` ] [ _ } ] { _ | { Z.V.D.B.A.l x b n c m v b M M D.Z.C.A.S.S.Z.G.A.F.v v x c M # + @ # + M c n c N A.A.A.N.Z.A.C.C.C.C.C.C.C.C.Z.[ ( } ` { ] ] { / ) _ [ } ] [ ",
"' { [ ] ' ` ] { _ ] F.G.V.A.D.k n m b v n b c v v n.S.A.Z.A.B.D.N.C.C.v v M n c @ # $ @ + M v b B m A.D.V.F.S.C.Z.Z.Z.Z.Z.Z.Z.Z.C.[ { [ [ { ] ] { ] ]  .( _ | ` ",
"{ ( { } ' [ ] [ ..) S.A.D.A.D.c c c x N l n n b v K.D.V.S.V.Z.V.S.V.P.x b x v b @ # # # % k x b k b F.A.D.F.Z.J.D.D.D.D.D.D.D.D.S...' ] ` ] [ ` ' ' ..) } ] | [ ",
"# = O % # ]  .] ' [ } ` ..} ] ] { { [ [ b n b b v ' ` | ' [ [ { { ' ` ` ' ' [ ` Z.V.B.A.M.S.V.V.N.m.] ] | '  .] [ [ [ [ [ [ [ [ ' B.D.Z.F.G.V.F.A.V.N.$ $ # @ # ",
"# # $ + # { ' ' ' ' ' ' ] ] ] ] ' [ ] ` m v v n v { ' } ] ` ] ] ] ] ] ] ] ] ] ] Z.Z.Z.Z.Z.Z.Z.Z.C.Z._ } ` ' { ] ] ] ] ] ] ] ] ] ] S.Z.A.A.A.C.C.A.F.V.@ % @ @ # ",
"# + @ % % [ [ _ ' ' ' ] ] ] ] [ [ ] ' ] b m n v b ] ` ] ' [ { [ ] ] ] ] ] ] ] ] Z.Z.Z.Z.Z.Z.Z.Z.A.C.' { [ [ [ ` ] ] ] ] ] ] ] ] ' S.Z.G.B.Z.D.Z.S.D.C.+ % @ $ # ",
"# # $ # @ _ } ` ' ' ' ' ' ] ] ] ] ` ' [ x v b v b ] { } ' ' ] ` ] ] ] ] ] ] ] ] Z.Z.Z.Z.Z.Z.Z.Z.Z.V.[ ' ' ' ] { ] ] ] ] ] ] ] ] ] F.N.S.A.Z.V.Z.A.D.C.@ + # % @ ",
"@ # # O # | ` _ ' ] ] ] ] ] ] ] ' ` ` _ m n n b M / ' [ ' ' [ [ ] ] ] ] ] ] ] ] Z.Z.Z.Z.Z.Z.Z.Z.V.A._ [ { [ ] ] ] ] ] ] ] ] ] ] ' A.F.S.Z.D.Z.C.Z.D.C.$ % @ o * ",
"[ ] ] { [ l M b v v v b b b b b b b n m c v v v x B n b b b b v b b b b b b b b Z.Z.Z.Z.Z.Z.Z.Z.F.C.b b c v n v b b b b b b b b m b z n v x b n n b v _ ` ' | ) ",
"' ] ' ' { n x v b b b b b b b b b b b c m b b b b b c c b n b n b b b b b b b b Z.Z.Z.Z.Z.Z.Z.Z.S.S.x m n b n c b b b b b b b b b c N b v b M v n b v ] { ' ' [ ",
"] { { _ ' c b b b b b b b b b b v v n v b c b b b v m n b v c v b b b b b b b b Z.Z.Z.Z.Z.Z.Z.Z.A.A.c v v c n m b b b b b b b b n b v c m n x v b b v ] ' ] ] ] ",
"' ] ' [ [ x m c b b b b b b b b n c v m c n m v n c n v v m n v b b b b b b b b Z.Z.Z.Z.Z.Z.Z.Z.S.Z.n c M b v b b b b b b b b b n b v m v b m b n v b ' ' ] { ' ",
"] [ ` { [ v b v b c v n v N v b m b M m b v m b b N c M v b v m M c b z n c n n C.C.C.Z.S.D.D.D.Z.A.x N v x b c v b n x m c b b n c M M c b N v v c n [ ' { ` [ ",
"] ' { _ [ S.Z.B.N.m.m v x M b M.V.Z.N.Z.@ & @ $ + [ } ` } [ ` ' _ [ _ M v n N c b v v b n n n b n b o @ # # % m c m b b [ [ ' { ] } ` ) [ [ M.C.V.V.m.H.V.S.A.S.",
"' [ } ] ] F.C.D.A.D.c c n z b H.S.J.S.A.$ # X # # ( ' ' ] [ ' [ ' | [ n x v b v m n n n m m n n n n @ # # O @ v m x b N ) ] } ` ' | ' [ [ ] A.D.F.A.B.Z.C.A.Z.Z.",
"' { _ ) | A.G.V.N.G.l n c v c D.C.C.C.Z.@ $ # $ @ ] | ` _ [ ` ] [ ] ` n M n v m v v v v b b b v k v O # @ = # v b n b v { [ ] [ ] ] } [ ' { V.A.A.C.C.V.D.A.Z.C.",
"{ ` {  .` C.D.C.A.N.z c c M B B.S.B.V.Z.@ # $ o # ] ` ] ] ` | ` { [ ) c c n c b n n n n m m m m B n @ O $ o % v v m n m ' ] ' { } ) X.` | | A.Z.B.D.D.N.B.V.Z.V.",
"[ ] ` ` } S.F.B.V.S.m v B n x G.V.A.S.C.$ + @ % $ _ { _ } [ ' { { { _ V m m v b n n n n n n n n c B + * $ - # b n v M v ] _ [ ` ' { _ } { _ F.A.C.A.B.D.A.C.A.Z.",
"] [ ' [ ] { ( ' [ ' ) ] ] ] ' b n b v n v n b c c v M N m v x n b n M c c v c M ] ] ] ] ] ] ] ] | ] V.A.B.C.Z.V.Z.Z.V.S.` { ] ] { v m b c V m c b v x ( ] ` ] [ ",
"[ ' [ [ ` | ` _ [ ` { { { ) } l c v v c m n n m b b b b b v N x b n b n b m b v ] ] ] ] ] ] ] [ ) | V.Z.A.V.A.C.Z.B.A.V.[ ` { ` { v c b m c N n x n v { [ [ { ' ",
"] ] ] ] ] ] ' ' [ ' ' { { ' { x v n v c b v x v b m c c n n M b b b n n m k N c ] ] ] ] ] ] ] ] ] _ A.C.F.N.A.Z.Z.Z.S.V.} ' ] [ ' V x v c c n x c m b } ] ] [ ' ",
"] ] ] ] ] ] ] ] ' [ ] ' [ { { l n v b v M n m n n v v b N c v x v n b m b n m b ] ] ] ] ] ] ] ] X.' A.M.Z.S.Z.Z.A.V.B.A.` { [ ` ] v n m m M v N v b x  .] ] _ [ ",
"] ] ] ] ] ] ] ] [ | [ _ ` ` _ v b v m N x v m n n n v v j k x b z c M v n b l b ] ] ] ] ] ] ] ] ( [ Z.A.Z.A.S.C.A.H.H.D.{ ' ] | { n v c v b z x M m b [ ] ' ' } ",
"n n n n n n n n z v v b M m C l b n x x * * # $ $ A.C.B.S.A.C.N.Z.D.B.' ` ] } [ ] ] ] ] ] ] ] ] | ( { [ } ' ] M M m n N x n v c c c m B c b ` X.' _ ( | | ` [ _ ",
"v v v v v v v v n n n n n z n n b n b n @ # + # $ A.Z.A.B.Z.A.C.C.C.A._ } _ ' ] ] ] ] ] ] ] ] ] ] { _ } | _ } v n n m c M b b n b N x b x c { ` ] [ ] ` ] ` } ' ",
"b b b b b b b b v v v v b v b b b x n v $ @ % # @ S.V.Z.D.B.F.Z.C.S.S./ ' } ] _ ] ] ] ] ] ] ] ] ' ] ` ] [ ' [ b n v n n c v b c b v v b b n [ ] ] { ] { ` ] ' [ ",
"b b b b b b b b b v b b b m b v M v m v $ + $ O $ A.D.M.S.S.m.D.S.C.N.` { [ ` } ] ] ] ] ] ] ] ] [ [ } [ { ] ' n v v b m c b n n n c m n v v _ ] ' ] ' [ ' { ` [ ",
"b b b b b b b b m c n n v b c n v v b n + # $ $ % C.C.D.B.A.Z.Z.C.A.A._ ' ` ' ] ] ] ] ] ] ] ] ] ] ] ] ` { ] ] n v M v c M n x n b v n v v b [ ] [ ] [ _ ] { ' ] "
};
